G04 #@! TF.FileFunction,Legend,Bot*
%FSLAX46Y46*%
G04 Gerber Fmt 4.6, Leading zero omitted, Abs format (unit mm)*
G04 Created by KiCad (PCBNEW 4.0.7) date 2018 March 08, Thursday 11:57:54*
%MOMM*%
%LPD*%
G01*
G04 APERTURE LIST*
%ADD10C,0.100000*%
%ADD11C,0.150000*%
%ADD12C,0.010000*%
%ADD13C,0.127000*%
G04 APERTURE END LIST*
D10*
D11*
X64500000Y-39696000D02*
X64500000Y-40946000D01*
X64000000Y-39696000D02*
X64500000Y-39696000D01*
X83450000Y-49800000D02*
X81950000Y-49800000D01*
X83450000Y-50300000D02*
X83450000Y-49800000D01*
X84450000Y-49050000D02*
X84450000Y-50800000D01*
X67450000Y-49050000D02*
X84450000Y-49050000D01*
X67450000Y-50800000D02*
X67450000Y-49050000D01*
X83450000Y-39100000D02*
X81950000Y-39100000D01*
X83450000Y-38600000D02*
X83450000Y-39100000D01*
X87900000Y-39696000D02*
X87900000Y-40946000D01*
X88400000Y-39696000D02*
X87900000Y-39696000D01*
X87150000Y-38446000D02*
X88900000Y-38446000D01*
X87150000Y-50446000D02*
X87150000Y-38446000D01*
X88900000Y-50446000D02*
X87150000Y-50446000D01*
D12*
G36*
X82321371Y-46719066D02*
X82281889Y-46719467D01*
X82166200Y-46722259D01*
X82069311Y-46730550D01*
X81987919Y-46745232D01*
X81918723Y-46767193D01*
X81858420Y-46797322D01*
X81803708Y-46836510D01*
X81784167Y-46853532D01*
X81751750Y-46893363D01*
X81722520Y-46947413D01*
X81699991Y-47007323D01*
X81687679Y-47064739D01*
X81686400Y-47085956D01*
X81694417Y-47144769D01*
X81715899Y-47209013D01*
X81746999Y-47269821D01*
X81783866Y-47318330D01*
X81789854Y-47324182D01*
X81840579Y-47365321D01*
X81896125Y-47397435D01*
X81959696Y-47421365D01*
X82034494Y-47437953D01*
X82123722Y-47448041D01*
X82230582Y-47452469D01*
X82279528Y-47452845D01*
X82341762Y-47452545D01*
X82385528Y-47451292D01*
X82414931Y-47448554D01*
X82434079Y-47443801D01*
X82447077Y-47436501D01*
X82454045Y-47430267D01*
X82460626Y-47422694D01*
X82465788Y-47412924D01*
X82469703Y-47398340D01*
X82472543Y-47376326D01*
X82474480Y-47344264D01*
X82475684Y-47299536D01*
X82476328Y-47239526D01*
X82476583Y-47161617D01*
X82476622Y-47085956D01*
X82476870Y-46985041D01*
X82476817Y-46904427D01*
X82475857Y-46865822D01*
X82329867Y-46865822D01*
X82329867Y-47306089D01*
X82236734Y-47306004D01*
X82180693Y-47304396D01*
X82121999Y-47300256D01*
X82073028Y-47294464D01*
X82071538Y-47294226D01*
X81992392Y-47275090D01*
X81931002Y-47245287D01*
X81884305Y-47202878D01*
X81854635Y-47156961D01*
X81836353Y-47106026D01*
X81837771Y-47058200D01*
X81858988Y-47006933D01*
X81900489Y-46953899D01*
X81957998Y-46914600D01*
X82032750Y-46888331D01*
X82082708Y-46879035D01*
X82139416Y-46872507D01*
X82199519Y-46867782D01*
X82250639Y-46865817D01*
X82253667Y-46865808D01*
X82329867Y-46865822D01*
X82475857Y-46865822D01*
X82475260Y-46841851D01*
X82470998Y-46795055D01*
X82462830Y-46761778D01*
X82449556Y-46739759D01*
X82429974Y-46726739D01*
X82402883Y-46720457D01*
X82367082Y-46718653D01*
X82321371Y-46719066D01*
X82321371Y-46719066D01*
G37*
X82321371Y-46719066D02*
X82281889Y-46719467D01*
X82166200Y-46722259D01*
X82069311Y-46730550D01*
X81987919Y-46745232D01*
X81918723Y-46767193D01*
X81858420Y-46797322D01*
X81803708Y-46836510D01*
X81784167Y-46853532D01*
X81751750Y-46893363D01*
X81722520Y-46947413D01*
X81699991Y-47007323D01*
X81687679Y-47064739D01*
X81686400Y-47085956D01*
X81694417Y-47144769D01*
X81715899Y-47209013D01*
X81746999Y-47269821D01*
X81783866Y-47318330D01*
X81789854Y-47324182D01*
X81840579Y-47365321D01*
X81896125Y-47397435D01*
X81959696Y-47421365D01*
X82034494Y-47437953D01*
X82123722Y-47448041D01*
X82230582Y-47452469D01*
X82279528Y-47452845D01*
X82341762Y-47452545D01*
X82385528Y-47451292D01*
X82414931Y-47448554D01*
X82434079Y-47443801D01*
X82447077Y-47436501D01*
X82454045Y-47430267D01*
X82460626Y-47422694D01*
X82465788Y-47412924D01*
X82469703Y-47398340D01*
X82472543Y-47376326D01*
X82474480Y-47344264D01*
X82475684Y-47299536D01*
X82476328Y-47239526D01*
X82476583Y-47161617D01*
X82476622Y-47085956D01*
X82476870Y-46985041D01*
X82476817Y-46904427D01*
X82475857Y-46865822D01*
X82329867Y-46865822D01*
X82329867Y-47306089D01*
X82236734Y-47306004D01*
X82180693Y-47304396D01*
X82121999Y-47300256D01*
X82073028Y-47294464D01*
X82071538Y-47294226D01*
X81992392Y-47275090D01*
X81931002Y-47245287D01*
X81884305Y-47202878D01*
X81854635Y-47156961D01*
X81836353Y-47106026D01*
X81837771Y-47058200D01*
X81858988Y-47006933D01*
X81900489Y-46953899D01*
X81957998Y-46914600D01*
X82032750Y-46888331D01*
X82082708Y-46879035D01*
X82139416Y-46872507D01*
X82199519Y-46867782D01*
X82250639Y-46865817D01*
X82253667Y-46865808D01*
X82329867Y-46865822D01*
X82475857Y-46865822D01*
X82475260Y-46841851D01*
X82470998Y-46795055D01*
X82462830Y-46761778D01*
X82449556Y-46739759D01*
X82429974Y-46726739D01*
X82402883Y-46720457D01*
X82367082Y-46718653D01*
X82321371Y-46719066D01*
G36*
X80912794Y-46719146D02*
X80843386Y-46719518D01*
X80790997Y-46720385D01*
X80752847Y-46721946D01*
X80726159Y-46724403D01*
X80708153Y-46727957D01*
X80696049Y-46732810D01*
X80687069Y-46739161D01*
X80683818Y-46742084D01*
X80664043Y-46773142D01*
X80660482Y-46808828D01*
X80673491Y-46840510D01*
X80679506Y-46846913D01*
X80689235Y-46853121D01*
X80704901Y-46857910D01*
X80729408Y-46861514D01*
X80765661Y-46864164D01*
X80816565Y-46866095D01*
X80885026Y-46867539D01*
X80947617Y-46868418D01*
X81195334Y-46871467D01*
X81198719Y-46936378D01*
X81202105Y-47001289D01*
X81033958Y-47001289D01*
X80960959Y-47001919D01*
X80907517Y-47004553D01*
X80870628Y-47010309D01*
X80847288Y-47020304D01*
X80834494Y-47035656D01*
X80829242Y-47057482D01*
X80828445Y-47077738D01*
X80830923Y-47102592D01*
X80840277Y-47120906D01*
X80859383Y-47133637D01*
X80891118Y-47141741D01*
X80938359Y-47146176D01*
X81003983Y-47147899D01*
X81039801Y-47148045D01*
X81200978Y-47148045D01*
X81200978Y-47306089D01*
X80952622Y-47306089D01*
X80871213Y-47306202D01*
X80809342Y-47306712D01*
X80763968Y-47307870D01*
X80732054Y-47309930D01*
X80710559Y-47313146D01*
X80696443Y-47317772D01*
X80686668Y-47324059D01*
X80681689Y-47328667D01*
X80664610Y-47355560D01*
X80659111Y-47379467D01*
X80666963Y-47408667D01*
X80681689Y-47430267D01*
X80689546Y-47437066D01*
X80699688Y-47442346D01*
X80714844Y-47446298D01*
X80737741Y-47449113D01*
X80771109Y-47450982D01*
X80817675Y-47452098D01*
X80880167Y-47452651D01*
X80961314Y-47452833D01*
X81003422Y-47452845D01*
X81093598Y-47452765D01*
X81163924Y-47452398D01*
X81217129Y-47451552D01*
X81255940Y-47450036D01*
X81283087Y-47447659D01*
X81301298Y-47444229D01*
X81313300Y-47439554D01*
X81321822Y-47433444D01*
X81325156Y-47430267D01*
X81331755Y-47422670D01*
X81336927Y-47412870D01*
X81340846Y-47398239D01*
X81343684Y-47376152D01*
X81345615Y-47343982D01*
X81346812Y-47299103D01*
X81347448Y-47238889D01*
X81347697Y-47160713D01*
X81347734Y-47087923D01*
X81347700Y-46994707D01*
X81347465Y-46921431D01*
X81346830Y-46865458D01*
X81345594Y-46824151D01*
X81343556Y-46794872D01*
X81340517Y-46774984D01*
X81336277Y-46761850D01*
X81330635Y-46752832D01*
X81323391Y-46745293D01*
X81321606Y-46743612D01*
X81312945Y-46736172D01*
X81302882Y-46730409D01*
X81288625Y-46726112D01*
X81267383Y-46723064D01*
X81236364Y-46721051D01*
X81192777Y-46719860D01*
X81133831Y-46719275D01*
X81056734Y-46719083D01*
X81002001Y-46719067D01*
X80912794Y-46719146D01*
X80912794Y-46719146D01*
G37*
X80912794Y-46719146D02*
X80843386Y-46719518D01*
X80790997Y-46720385D01*
X80752847Y-46721946D01*
X80726159Y-46724403D01*
X80708153Y-46727957D01*
X80696049Y-46732810D01*
X80687069Y-46739161D01*
X80683818Y-46742084D01*
X80664043Y-46773142D01*
X80660482Y-46808828D01*
X80673491Y-46840510D01*
X80679506Y-46846913D01*
X80689235Y-46853121D01*
X80704901Y-46857910D01*
X80729408Y-46861514D01*
X80765661Y-46864164D01*
X80816565Y-46866095D01*
X80885026Y-46867539D01*
X80947617Y-46868418D01*
X81195334Y-46871467D01*
X81198719Y-46936378D01*
X81202105Y-47001289D01*
X81033958Y-47001289D01*
X80960959Y-47001919D01*
X80907517Y-47004553D01*
X80870628Y-47010309D01*
X80847288Y-47020304D01*
X80834494Y-47035656D01*
X80829242Y-47057482D01*
X80828445Y-47077738D01*
X80830923Y-47102592D01*
X80840277Y-47120906D01*
X80859383Y-47133637D01*
X80891118Y-47141741D01*
X80938359Y-47146176D01*
X81003983Y-47147899D01*
X81039801Y-47148045D01*
X81200978Y-47148045D01*
X81200978Y-47306089D01*
X80952622Y-47306089D01*
X80871213Y-47306202D01*
X80809342Y-47306712D01*
X80763968Y-47307870D01*
X80732054Y-47309930D01*
X80710559Y-47313146D01*
X80696443Y-47317772D01*
X80686668Y-47324059D01*
X80681689Y-47328667D01*
X80664610Y-47355560D01*
X80659111Y-47379467D01*
X80666963Y-47408667D01*
X80681689Y-47430267D01*
X80689546Y-47437066D01*
X80699688Y-47442346D01*
X80714844Y-47446298D01*
X80737741Y-47449113D01*
X80771109Y-47450982D01*
X80817675Y-47452098D01*
X80880167Y-47452651D01*
X80961314Y-47452833D01*
X81003422Y-47452845D01*
X81093598Y-47452765D01*
X81163924Y-47452398D01*
X81217129Y-47451552D01*
X81255940Y-47450036D01*
X81283087Y-47447659D01*
X81301298Y-47444229D01*
X81313300Y-47439554D01*
X81321822Y-47433444D01*
X81325156Y-47430267D01*
X81331755Y-47422670D01*
X81336927Y-47412870D01*
X81340846Y-47398239D01*
X81343684Y-47376152D01*
X81345615Y-47343982D01*
X81346812Y-47299103D01*
X81347448Y-47238889D01*
X81347697Y-47160713D01*
X81347734Y-47087923D01*
X81347700Y-46994707D01*
X81347465Y-46921431D01*
X81346830Y-46865458D01*
X81345594Y-46824151D01*
X81343556Y-46794872D01*
X81340517Y-46774984D01*
X81336277Y-46761850D01*
X81330635Y-46752832D01*
X81323391Y-46745293D01*
X81321606Y-46743612D01*
X81312945Y-46736172D01*
X81302882Y-46730409D01*
X81288625Y-46726112D01*
X81267383Y-46723064D01*
X81236364Y-46721051D01*
X81192777Y-46719860D01*
X81133831Y-46719275D01*
X81056734Y-46719083D01*
X81002001Y-46719067D01*
X80912794Y-46719146D01*
G36*
X79891703Y-46720351D02*
X79816888Y-46725581D01*
X79747306Y-46733750D01*
X79687002Y-46744550D01*
X79640020Y-46757673D01*
X79610406Y-46772813D01*
X79605860Y-46777269D01*
X79590054Y-46811850D01*
X79594847Y-46847351D01*
X79619364Y-46877725D01*
X79620534Y-46878596D01*
X79634954Y-46887954D01*
X79650008Y-46892876D01*
X79671005Y-46893473D01*
X79703257Y-46889861D01*
X79752073Y-46882154D01*
X79756000Y-46881505D01*
X79828739Y-46872569D01*
X79907217Y-46868161D01*
X79985927Y-46868119D01*
X80059361Y-46872279D01*
X80122011Y-46880479D01*
X80168370Y-46892557D01*
X80171416Y-46893771D01*
X80205048Y-46912615D01*
X80216864Y-46931685D01*
X80207614Y-46950439D01*
X80178047Y-46968337D01*
X80128911Y-46984837D01*
X80060957Y-46999396D01*
X80015645Y-47006406D01*
X79921456Y-47019889D01*
X79846544Y-47032214D01*
X79787717Y-47044449D01*
X79741785Y-47057661D01*
X79705555Y-47072917D01*
X79675838Y-47091285D01*
X79649442Y-47113831D01*
X79628230Y-47135971D01*
X79603065Y-47166819D01*
X79590681Y-47193345D01*
X79586808Y-47226026D01*
X79586667Y-47237995D01*
X79589576Y-47277712D01*
X79601202Y-47307259D01*
X79621323Y-47333486D01*
X79662216Y-47373576D01*
X79707817Y-47404149D01*
X79761513Y-47426203D01*
X79826692Y-47440735D01*
X79906744Y-47448741D01*
X80005057Y-47451218D01*
X80021289Y-47451177D01*
X80086849Y-47449818D01*
X80151866Y-47446730D01*
X80209252Y-47442356D01*
X80251922Y-47437140D01*
X80255372Y-47436541D01*
X80297796Y-47426491D01*
X80333780Y-47413796D01*
X80354150Y-47402190D01*
X80373107Y-47371572D01*
X80374427Y-47335918D01*
X80358085Y-47304144D01*
X80354429Y-47300551D01*
X80339315Y-47289876D01*
X80320415Y-47285276D01*
X80291162Y-47286059D01*
X80255651Y-47290127D01*
X80215970Y-47293762D01*
X80160345Y-47296828D01*
X80095406Y-47299053D01*
X80027785Y-47300164D01*
X80010000Y-47300237D01*
X79942128Y-47299964D01*
X79892454Y-47298646D01*
X79856610Y-47295827D01*
X79830224Y-47291050D01*
X79808926Y-47283857D01*
X79796126Y-47277867D01*
X79768000Y-47261233D01*
X79750068Y-47246168D01*
X79747447Y-47241897D01*
X79752976Y-47224263D01*
X79779260Y-47207192D01*
X79824478Y-47191458D01*
X79886808Y-47177838D01*
X79905171Y-47174804D01*
X80001090Y-47159738D01*
X80077641Y-47147146D01*
X80137780Y-47136111D01*
X80184460Y-47125720D01*
X80220637Y-47115056D01*
X80249265Y-47103205D01*
X80273298Y-47089251D01*
X80295692Y-47072281D01*
X80319402Y-47051378D01*
X80327380Y-47044049D01*
X80355353Y-47016699D01*
X80370160Y-46995029D01*
X80375952Y-46970232D01*
X80376889Y-46938983D01*
X80366575Y-46877705D01*
X80335752Y-46825640D01*
X80284595Y-46782958D01*
X80213283Y-46749825D01*
X80162400Y-46734964D01*
X80107100Y-46725366D01*
X80040853Y-46719936D01*
X79967706Y-46718367D01*
X79891703Y-46720351D01*
X79891703Y-46720351D01*
G37*
X79891703Y-46720351D02*
X79816888Y-46725581D01*
X79747306Y-46733750D01*
X79687002Y-46744550D01*
X79640020Y-46757673D01*
X79610406Y-46772813D01*
X79605860Y-46777269D01*
X79590054Y-46811850D01*
X79594847Y-46847351D01*
X79619364Y-46877725D01*
X79620534Y-46878596D01*
X79634954Y-46887954D01*
X79650008Y-46892876D01*
X79671005Y-46893473D01*
X79703257Y-46889861D01*
X79752073Y-46882154D01*
X79756000Y-46881505D01*
X79828739Y-46872569D01*
X79907217Y-46868161D01*
X79985927Y-46868119D01*
X80059361Y-46872279D01*
X80122011Y-46880479D01*
X80168370Y-46892557D01*
X80171416Y-46893771D01*
X80205048Y-46912615D01*
X80216864Y-46931685D01*
X80207614Y-46950439D01*
X80178047Y-46968337D01*
X80128911Y-46984837D01*
X80060957Y-46999396D01*
X80015645Y-47006406D01*
X79921456Y-47019889D01*
X79846544Y-47032214D01*
X79787717Y-47044449D01*
X79741785Y-47057661D01*
X79705555Y-47072917D01*
X79675838Y-47091285D01*
X79649442Y-47113831D01*
X79628230Y-47135971D01*
X79603065Y-47166819D01*
X79590681Y-47193345D01*
X79586808Y-47226026D01*
X79586667Y-47237995D01*
X79589576Y-47277712D01*
X79601202Y-47307259D01*
X79621323Y-47333486D01*
X79662216Y-47373576D01*
X79707817Y-47404149D01*
X79761513Y-47426203D01*
X79826692Y-47440735D01*
X79906744Y-47448741D01*
X80005057Y-47451218D01*
X80021289Y-47451177D01*
X80086849Y-47449818D01*
X80151866Y-47446730D01*
X80209252Y-47442356D01*
X80251922Y-47437140D01*
X80255372Y-47436541D01*
X80297796Y-47426491D01*
X80333780Y-47413796D01*
X80354150Y-47402190D01*
X80373107Y-47371572D01*
X80374427Y-47335918D01*
X80358085Y-47304144D01*
X80354429Y-47300551D01*
X80339315Y-47289876D01*
X80320415Y-47285276D01*
X80291162Y-47286059D01*
X80255651Y-47290127D01*
X80215970Y-47293762D01*
X80160345Y-47296828D01*
X80095406Y-47299053D01*
X80027785Y-47300164D01*
X80010000Y-47300237D01*
X79942128Y-47299964D01*
X79892454Y-47298646D01*
X79856610Y-47295827D01*
X79830224Y-47291050D01*
X79808926Y-47283857D01*
X79796126Y-47277867D01*
X79768000Y-47261233D01*
X79750068Y-47246168D01*
X79747447Y-47241897D01*
X79752976Y-47224263D01*
X79779260Y-47207192D01*
X79824478Y-47191458D01*
X79886808Y-47177838D01*
X79905171Y-47174804D01*
X80001090Y-47159738D01*
X80077641Y-47147146D01*
X80137780Y-47136111D01*
X80184460Y-47125720D01*
X80220637Y-47115056D01*
X80249265Y-47103205D01*
X80273298Y-47089251D01*
X80295692Y-47072281D01*
X80319402Y-47051378D01*
X80327380Y-47044049D01*
X80355353Y-47016699D01*
X80370160Y-46995029D01*
X80375952Y-46970232D01*
X80376889Y-46938983D01*
X80366575Y-46877705D01*
X80335752Y-46825640D01*
X80284595Y-46782958D01*
X80213283Y-46749825D01*
X80162400Y-46734964D01*
X80107100Y-46725366D01*
X80040853Y-46719936D01*
X79967706Y-46718367D01*
X79891703Y-46720351D01*
G36*
X79123822Y-46741645D02*
X79117242Y-46749218D01*
X79112079Y-46758987D01*
X79108164Y-46773571D01*
X79105324Y-46795585D01*
X79103387Y-46827648D01*
X79102183Y-46872375D01*
X79101539Y-46932385D01*
X79101284Y-47010294D01*
X79101245Y-47085956D01*
X79101314Y-47179802D01*
X79101638Y-47253689D01*
X79102386Y-47310232D01*
X79103732Y-47352049D01*
X79105846Y-47381757D01*
X79108900Y-47401973D01*
X79113066Y-47415314D01*
X79118516Y-47424398D01*
X79123822Y-47430267D01*
X79156826Y-47449947D01*
X79191991Y-47448181D01*
X79223455Y-47426717D01*
X79230684Y-47418337D01*
X79236334Y-47408614D01*
X79240599Y-47394861D01*
X79243673Y-47374389D01*
X79245752Y-47344512D01*
X79247030Y-47302541D01*
X79247701Y-47245789D01*
X79247959Y-47171567D01*
X79248000Y-47087537D01*
X79248000Y-46774485D01*
X79220291Y-46746776D01*
X79186137Y-46723463D01*
X79153006Y-46722623D01*
X79123822Y-46741645D01*
X79123822Y-46741645D01*
G37*
X79123822Y-46741645D02*
X79117242Y-46749218D01*
X79112079Y-46758987D01*
X79108164Y-46773571D01*
X79105324Y-46795585D01*
X79103387Y-46827648D01*
X79102183Y-46872375D01*
X79101539Y-46932385D01*
X79101284Y-47010294D01*
X79101245Y-47085956D01*
X79101314Y-47179802D01*
X79101638Y-47253689D01*
X79102386Y-47310232D01*
X79103732Y-47352049D01*
X79105846Y-47381757D01*
X79108900Y-47401973D01*
X79113066Y-47415314D01*
X79118516Y-47424398D01*
X79123822Y-47430267D01*
X79156826Y-47449947D01*
X79191991Y-47448181D01*
X79223455Y-47426717D01*
X79230684Y-47418337D01*
X79236334Y-47408614D01*
X79240599Y-47394861D01*
X79243673Y-47374389D01*
X79245752Y-47344512D01*
X79247030Y-47302541D01*
X79247701Y-47245789D01*
X79247959Y-47171567D01*
X79248000Y-47087537D01*
X79248000Y-46774485D01*
X79220291Y-46746776D01*
X79186137Y-46723463D01*
X79153006Y-46722623D01*
X79123822Y-46741645D01*
G36*
X78150081Y-46724599D02*
X78081565Y-46736095D01*
X78028943Y-46753967D01*
X77994708Y-46777499D01*
X77985379Y-46790924D01*
X77975893Y-46822148D01*
X77982277Y-46850395D01*
X78002430Y-46877182D01*
X78033745Y-46889713D01*
X78079183Y-46888696D01*
X78114326Y-46881906D01*
X78192419Y-46868971D01*
X78272226Y-46867742D01*
X78361555Y-46878241D01*
X78386229Y-46882690D01*
X78469291Y-46906108D01*
X78534273Y-46940945D01*
X78580461Y-46986604D01*
X78607145Y-47042494D01*
X78612663Y-47071388D01*
X78609051Y-47130012D01*
X78585729Y-47181879D01*
X78544824Y-47225978D01*
X78488459Y-47261299D01*
X78418760Y-47286829D01*
X78337852Y-47301559D01*
X78247860Y-47304478D01*
X78150910Y-47294575D01*
X78145436Y-47293641D01*
X78106875Y-47286459D01*
X78085494Y-47279521D01*
X78076227Y-47269227D01*
X78074006Y-47251976D01*
X78073956Y-47242841D01*
X78073956Y-47204489D01*
X78142431Y-47204489D01*
X78202900Y-47200347D01*
X78244165Y-47187147D01*
X78268175Y-47163730D01*
X78276877Y-47128936D01*
X78276983Y-47124394D01*
X78271892Y-47094654D01*
X78254433Y-47073419D01*
X78221939Y-47059366D01*
X78171743Y-47051173D01*
X78123123Y-47048161D01*
X78052456Y-47046433D01*
X78001198Y-47049070D01*
X77966239Y-47058800D01*
X77944470Y-47078353D01*
X77932780Y-47110456D01*
X77928060Y-47157838D01*
X77927200Y-47220071D01*
X77928609Y-47289535D01*
X77932848Y-47336786D01*
X77939936Y-47362012D01*
X77941311Y-47363988D01*
X77980228Y-47395508D01*
X78037286Y-47420470D01*
X78108869Y-47438340D01*
X78191358Y-47448586D01*
X78281139Y-47450673D01*
X78374592Y-47444068D01*
X78429556Y-47435956D01*
X78515766Y-47411554D01*
X78595892Y-47371662D01*
X78662977Y-47319887D01*
X78673173Y-47309539D01*
X78706302Y-47266035D01*
X78736194Y-47212118D01*
X78759357Y-47155592D01*
X78772298Y-47104259D01*
X78773858Y-47084544D01*
X78767218Y-47043419D01*
X78749568Y-46992252D01*
X78724297Y-46938394D01*
X78694789Y-46889195D01*
X78668719Y-46856334D01*
X78607765Y-46807452D01*
X78528969Y-46768545D01*
X78435157Y-46740494D01*
X78329150Y-46724179D01*
X78232000Y-46720192D01*
X78150081Y-46724599D01*
X78150081Y-46724599D01*
G37*
X78150081Y-46724599D02*
X78081565Y-46736095D01*
X78028943Y-46753967D01*
X77994708Y-46777499D01*
X77985379Y-46790924D01*
X77975893Y-46822148D01*
X77982277Y-46850395D01*
X78002430Y-46877182D01*
X78033745Y-46889713D01*
X78079183Y-46888696D01*
X78114326Y-46881906D01*
X78192419Y-46868971D01*
X78272226Y-46867742D01*
X78361555Y-46878241D01*
X78386229Y-46882690D01*
X78469291Y-46906108D01*
X78534273Y-46940945D01*
X78580461Y-46986604D01*
X78607145Y-47042494D01*
X78612663Y-47071388D01*
X78609051Y-47130012D01*
X78585729Y-47181879D01*
X78544824Y-47225978D01*
X78488459Y-47261299D01*
X78418760Y-47286829D01*
X78337852Y-47301559D01*
X78247860Y-47304478D01*
X78150910Y-47294575D01*
X78145436Y-47293641D01*
X78106875Y-47286459D01*
X78085494Y-47279521D01*
X78076227Y-47269227D01*
X78074006Y-47251976D01*
X78073956Y-47242841D01*
X78073956Y-47204489D01*
X78142431Y-47204489D01*
X78202900Y-47200347D01*
X78244165Y-47187147D01*
X78268175Y-47163730D01*
X78276877Y-47128936D01*
X78276983Y-47124394D01*
X78271892Y-47094654D01*
X78254433Y-47073419D01*
X78221939Y-47059366D01*
X78171743Y-47051173D01*
X78123123Y-47048161D01*
X78052456Y-47046433D01*
X78001198Y-47049070D01*
X77966239Y-47058800D01*
X77944470Y-47078353D01*
X77932780Y-47110456D01*
X77928060Y-47157838D01*
X77927200Y-47220071D01*
X77928609Y-47289535D01*
X77932848Y-47336786D01*
X77939936Y-47362012D01*
X77941311Y-47363988D01*
X77980228Y-47395508D01*
X78037286Y-47420470D01*
X78108869Y-47438340D01*
X78191358Y-47448586D01*
X78281139Y-47450673D01*
X78374592Y-47444068D01*
X78429556Y-47435956D01*
X78515766Y-47411554D01*
X78595892Y-47371662D01*
X78662977Y-47319887D01*
X78673173Y-47309539D01*
X78706302Y-47266035D01*
X78736194Y-47212118D01*
X78759357Y-47155592D01*
X78772298Y-47104259D01*
X78773858Y-47084544D01*
X78767218Y-47043419D01*
X78749568Y-46992252D01*
X78724297Y-46938394D01*
X78694789Y-46889195D01*
X78668719Y-46856334D01*
X78607765Y-46807452D01*
X78528969Y-46768545D01*
X78435157Y-46740494D01*
X78329150Y-46724179D01*
X78232000Y-46720192D01*
X78150081Y-46724599D01*
G36*
X77500114Y-46723448D02*
X77476548Y-46737273D01*
X77445735Y-46759881D01*
X77406078Y-46792338D01*
X77355980Y-46835708D01*
X77293843Y-46891058D01*
X77218072Y-46959451D01*
X77131334Y-47038084D01*
X76950711Y-47201878D01*
X76945067Y-46982029D01*
X76943029Y-46906351D01*
X76941063Y-46849994D01*
X76938734Y-46809706D01*
X76935606Y-46782235D01*
X76931245Y-46764329D01*
X76925216Y-46752737D01*
X76917084Y-46744208D01*
X76912772Y-46740623D01*
X76878241Y-46721670D01*
X76845383Y-46724441D01*
X76819318Y-46740633D01*
X76792667Y-46762199D01*
X76789352Y-47077151D01*
X76788435Y-47169779D01*
X76787968Y-47242544D01*
X76788113Y-47298161D01*
X76789032Y-47339342D01*
X76790887Y-47368803D01*
X76793839Y-47389255D01*
X76798050Y-47403413D01*
X76803682Y-47413991D01*
X76809927Y-47422474D01*
X76823439Y-47438207D01*
X76836883Y-47448636D01*
X76852124Y-47452639D01*
X76871026Y-47449094D01*
X76895455Y-47436879D01*
X76927273Y-47414871D01*
X76968348Y-47381949D01*
X77020542Y-47336991D01*
X77085722Y-47278875D01*
X77159556Y-47212099D01*
X77424845Y-46971458D01*
X77430489Y-47190589D01*
X77432531Y-47266128D01*
X77434502Y-47322354D01*
X77436839Y-47362524D01*
X77439981Y-47389896D01*
X77444364Y-47407728D01*
X77450424Y-47419279D01*
X77458600Y-47427807D01*
X77462784Y-47431282D01*
X77499765Y-47450372D01*
X77534708Y-47447493D01*
X77565136Y-47423100D01*
X77572097Y-47413286D01*
X77577523Y-47401826D01*
X77581603Y-47385968D01*
X77584529Y-47362963D01*
X77586492Y-47330062D01*
X77587683Y-47284516D01*
X77588292Y-47223573D01*
X77588511Y-47144486D01*
X77588534Y-47085956D01*
X77588460Y-46994407D01*
X77588113Y-46922687D01*
X77587301Y-46868045D01*
X77585833Y-46827732D01*
X77583519Y-46798998D01*
X77580167Y-46779093D01*
X77575588Y-46765268D01*
X77569589Y-46754772D01*
X77565136Y-46748811D01*
X77553850Y-46734691D01*
X77543301Y-46724029D01*
X77531893Y-46717892D01*
X77518030Y-46717343D01*
X77500114Y-46723448D01*
X77500114Y-46723448D01*
G37*
X77500114Y-46723448D02*
X77476548Y-46737273D01*
X77445735Y-46759881D01*
X77406078Y-46792338D01*
X77355980Y-46835708D01*
X77293843Y-46891058D01*
X77218072Y-46959451D01*
X77131334Y-47038084D01*
X76950711Y-47201878D01*
X76945067Y-46982029D01*
X76943029Y-46906351D01*
X76941063Y-46849994D01*
X76938734Y-46809706D01*
X76935606Y-46782235D01*
X76931245Y-46764329D01*
X76925216Y-46752737D01*
X76917084Y-46744208D01*
X76912772Y-46740623D01*
X76878241Y-46721670D01*
X76845383Y-46724441D01*
X76819318Y-46740633D01*
X76792667Y-46762199D01*
X76789352Y-47077151D01*
X76788435Y-47169779D01*
X76787968Y-47242544D01*
X76788113Y-47298161D01*
X76789032Y-47339342D01*
X76790887Y-47368803D01*
X76793839Y-47389255D01*
X76798050Y-47403413D01*
X76803682Y-47413991D01*
X76809927Y-47422474D01*
X76823439Y-47438207D01*
X76836883Y-47448636D01*
X76852124Y-47452639D01*
X76871026Y-47449094D01*
X76895455Y-47436879D01*
X76927273Y-47414871D01*
X76968348Y-47381949D01*
X77020542Y-47336991D01*
X77085722Y-47278875D01*
X77159556Y-47212099D01*
X77424845Y-46971458D01*
X77430489Y-47190589D01*
X77432531Y-47266128D01*
X77434502Y-47322354D01*
X77436839Y-47362524D01*
X77439981Y-47389896D01*
X77444364Y-47407728D01*
X77450424Y-47419279D01*
X77458600Y-47427807D01*
X77462784Y-47431282D01*
X77499765Y-47450372D01*
X77534708Y-47447493D01*
X77565136Y-47423100D01*
X77572097Y-47413286D01*
X77577523Y-47401826D01*
X77581603Y-47385968D01*
X77584529Y-47362963D01*
X77586492Y-47330062D01*
X77587683Y-47284516D01*
X77588292Y-47223573D01*
X77588511Y-47144486D01*
X77588534Y-47085956D01*
X77588460Y-46994407D01*
X77588113Y-46922687D01*
X77587301Y-46868045D01*
X77585833Y-46827732D01*
X77583519Y-46798998D01*
X77580167Y-46779093D01*
X77575588Y-46765268D01*
X77569589Y-46754772D01*
X77565136Y-46748811D01*
X77553850Y-46734691D01*
X77543301Y-46724029D01*
X77531893Y-46717892D01*
X77518030Y-46717343D01*
X77500114Y-46723448D01*
G36*
X75969657Y-46719260D02*
X75893299Y-46720174D01*
X75834783Y-46722311D01*
X75791745Y-46726175D01*
X75761817Y-46732267D01*
X75742632Y-46741090D01*
X75731824Y-46753146D01*
X75727027Y-46768939D01*
X75725873Y-46788970D01*
X75725867Y-46791335D01*
X75726869Y-46813992D01*
X75731604Y-46831503D01*
X75742667Y-46844574D01*
X75762652Y-46853913D01*
X75794154Y-46860227D01*
X75839768Y-46864222D01*
X75902087Y-46866606D01*
X75983707Y-46868086D01*
X76008723Y-46868414D01*
X76250800Y-46871467D01*
X76254186Y-46936378D01*
X76257571Y-47001289D01*
X76089424Y-47001289D01*
X76023734Y-47001531D01*
X75976828Y-47002556D01*
X75944917Y-47004811D01*
X75924209Y-47008742D01*
X75910916Y-47014798D01*
X75901245Y-47023424D01*
X75901183Y-47023493D01*
X75883644Y-47057112D01*
X75884278Y-47093448D01*
X75902686Y-47124423D01*
X75906329Y-47127607D01*
X75919259Y-47135812D01*
X75936976Y-47141521D01*
X75963430Y-47145162D01*
X76002568Y-47147167D01*
X76058338Y-47147964D01*
X76094006Y-47148045D01*
X76256445Y-47148045D01*
X76256445Y-47306089D01*
X76009839Y-47306089D01*
X75928420Y-47306231D01*
X75866590Y-47306814D01*
X75821363Y-47308068D01*
X75789752Y-47310227D01*
X75768769Y-47313523D01*
X75755427Y-47318189D01*
X75746739Y-47324457D01*
X75744550Y-47326733D01*
X75728386Y-47358280D01*
X75727203Y-47394168D01*
X75740464Y-47425285D01*
X75750957Y-47435271D01*
X75761871Y-47440769D01*
X75778783Y-47445022D01*
X75804367Y-47448180D01*
X75841299Y-47450392D01*
X75892254Y-47451806D01*
X75959906Y-47452572D01*
X76046931Y-47452838D01*
X76066606Y-47452845D01*
X76155089Y-47452787D01*
X76223773Y-47452467D01*
X76275436Y-47451667D01*
X76312855Y-47450167D01*
X76338810Y-47447749D01*
X76356078Y-47444194D01*
X76367438Y-47439282D01*
X76375668Y-47432795D01*
X76380183Y-47428138D01*
X76386979Y-47419889D01*
X76392288Y-47409669D01*
X76396294Y-47394800D01*
X76399179Y-47372602D01*
X76401126Y-47340393D01*
X76402319Y-47295496D01*
X76402939Y-47235228D01*
X76403171Y-47156911D01*
X76403200Y-47090994D01*
X76403129Y-46998628D01*
X76402792Y-46926117D01*
X76402002Y-46870737D01*
X76400574Y-46829765D01*
X76398321Y-46800478D01*
X76395057Y-46780153D01*
X76390596Y-46766066D01*
X76384752Y-46755495D01*
X76379803Y-46748811D01*
X76356406Y-46719067D01*
X76066226Y-46719067D01*
X75969657Y-46719260D01*
X75969657Y-46719260D01*
G37*
X75969657Y-46719260D02*
X75893299Y-46720174D01*
X75834783Y-46722311D01*
X75791745Y-46726175D01*
X75761817Y-46732267D01*
X75742632Y-46741090D01*
X75731824Y-46753146D01*
X75727027Y-46768939D01*
X75725873Y-46788970D01*
X75725867Y-46791335D01*
X75726869Y-46813992D01*
X75731604Y-46831503D01*
X75742667Y-46844574D01*
X75762652Y-46853913D01*
X75794154Y-46860227D01*
X75839768Y-46864222D01*
X75902087Y-46866606D01*
X75983707Y-46868086D01*
X76008723Y-46868414D01*
X76250800Y-46871467D01*
X76254186Y-46936378D01*
X76257571Y-47001289D01*
X76089424Y-47001289D01*
X76023734Y-47001531D01*
X75976828Y-47002556D01*
X75944917Y-47004811D01*
X75924209Y-47008742D01*
X75910916Y-47014798D01*
X75901245Y-47023424D01*
X75901183Y-47023493D01*
X75883644Y-47057112D01*
X75884278Y-47093448D01*
X75902686Y-47124423D01*
X75906329Y-47127607D01*
X75919259Y-47135812D01*
X75936976Y-47141521D01*
X75963430Y-47145162D01*
X76002568Y-47147167D01*
X76058338Y-47147964D01*
X76094006Y-47148045D01*
X76256445Y-47148045D01*
X76256445Y-47306089D01*
X76009839Y-47306089D01*
X75928420Y-47306231D01*
X75866590Y-47306814D01*
X75821363Y-47308068D01*
X75789752Y-47310227D01*
X75768769Y-47313523D01*
X75755427Y-47318189D01*
X75746739Y-47324457D01*
X75744550Y-47326733D01*
X75728386Y-47358280D01*
X75727203Y-47394168D01*
X75740464Y-47425285D01*
X75750957Y-47435271D01*
X75761871Y-47440769D01*
X75778783Y-47445022D01*
X75804367Y-47448180D01*
X75841299Y-47450392D01*
X75892254Y-47451806D01*
X75959906Y-47452572D01*
X76046931Y-47452838D01*
X76066606Y-47452845D01*
X76155089Y-47452787D01*
X76223773Y-47452467D01*
X76275436Y-47451667D01*
X76312855Y-47450167D01*
X76338810Y-47447749D01*
X76356078Y-47444194D01*
X76367438Y-47439282D01*
X76375668Y-47432795D01*
X76380183Y-47428138D01*
X76386979Y-47419889D01*
X76392288Y-47409669D01*
X76396294Y-47394800D01*
X76399179Y-47372602D01*
X76401126Y-47340393D01*
X76402319Y-47295496D01*
X76402939Y-47235228D01*
X76403171Y-47156911D01*
X76403200Y-47090994D01*
X76403129Y-46998628D01*
X76402792Y-46926117D01*
X76402002Y-46870737D01*
X76400574Y-46829765D01*
X76398321Y-46800478D01*
X76395057Y-46780153D01*
X76390596Y-46766066D01*
X76384752Y-46755495D01*
X76379803Y-46748811D01*
X76356406Y-46719067D01*
X76066226Y-46719067D01*
X75969657Y-46719260D01*
G36*
X75181691Y-46719275D02*
X75052712Y-46723636D01*
X74943009Y-46736861D01*
X74850774Y-46759741D01*
X74774198Y-46793070D01*
X74711473Y-46837638D01*
X74660788Y-46894236D01*
X74620337Y-46963658D01*
X74619541Y-46965351D01*
X74595399Y-47027483D01*
X74586797Y-47082509D01*
X74593769Y-47137887D01*
X74616346Y-47201073D01*
X74620628Y-47210689D01*
X74649828Y-47266966D01*
X74682644Y-47310451D01*
X74724998Y-47347417D01*
X74782810Y-47384135D01*
X74786169Y-47386052D01*
X74836496Y-47410227D01*
X74893379Y-47428282D01*
X74960473Y-47440839D01*
X75041435Y-47448522D01*
X75139918Y-47451953D01*
X75174714Y-47452251D01*
X75340406Y-47452845D01*
X75363803Y-47423100D01*
X75370743Y-47413319D01*
X75376158Y-47401897D01*
X75380235Y-47386095D01*
X75383163Y-47363175D01*
X75385133Y-47330396D01*
X75385775Y-47306089D01*
X75229156Y-47306089D01*
X75135274Y-47306089D01*
X75080336Y-47304483D01*
X75023940Y-47300255D01*
X74977655Y-47294292D01*
X74974861Y-47293790D01*
X74892652Y-47271736D01*
X74828886Y-47238600D01*
X74781548Y-47192847D01*
X74748618Y-47132939D01*
X74742892Y-47117061D01*
X74737279Y-47092333D01*
X74739709Y-47067902D01*
X74751533Y-47035400D01*
X74758660Y-47019434D01*
X74782000Y-46977006D01*
X74810120Y-46947240D01*
X74841060Y-46926511D01*
X74903034Y-46899537D01*
X74982349Y-46879998D01*
X75074747Y-46868746D01*
X75141667Y-46866270D01*
X75229156Y-46865822D01*
X75229156Y-47306089D01*
X75385775Y-47306089D01*
X75386332Y-47285021D01*
X75386950Y-47224311D01*
X75387175Y-47145526D01*
X75387200Y-47083920D01*
X75387200Y-46774485D01*
X75359491Y-46746776D01*
X75347194Y-46735544D01*
X75333897Y-46727853D01*
X75315328Y-46723040D01*
X75287214Y-46720446D01*
X75245283Y-46719410D01*
X75185263Y-46719270D01*
X75181691Y-46719275D01*
X75181691Y-46719275D01*
G37*
X75181691Y-46719275D02*
X75052712Y-46723636D01*
X74943009Y-46736861D01*
X74850774Y-46759741D01*
X74774198Y-46793070D01*
X74711473Y-46837638D01*
X74660788Y-46894236D01*
X74620337Y-46963658D01*
X74619541Y-46965351D01*
X74595399Y-47027483D01*
X74586797Y-47082509D01*
X74593769Y-47137887D01*
X74616346Y-47201073D01*
X74620628Y-47210689D01*
X74649828Y-47266966D01*
X74682644Y-47310451D01*
X74724998Y-47347417D01*
X74782810Y-47384135D01*
X74786169Y-47386052D01*
X74836496Y-47410227D01*
X74893379Y-47428282D01*
X74960473Y-47440839D01*
X75041435Y-47448522D01*
X75139918Y-47451953D01*
X75174714Y-47452251D01*
X75340406Y-47452845D01*
X75363803Y-47423100D01*
X75370743Y-47413319D01*
X75376158Y-47401897D01*
X75380235Y-47386095D01*
X75383163Y-47363175D01*
X75385133Y-47330396D01*
X75385775Y-47306089D01*
X75229156Y-47306089D01*
X75135274Y-47306089D01*
X75080336Y-47304483D01*
X75023940Y-47300255D01*
X74977655Y-47294292D01*
X74974861Y-47293790D01*
X74892652Y-47271736D01*
X74828886Y-47238600D01*
X74781548Y-47192847D01*
X74748618Y-47132939D01*
X74742892Y-47117061D01*
X74737279Y-47092333D01*
X74739709Y-47067902D01*
X74751533Y-47035400D01*
X74758660Y-47019434D01*
X74782000Y-46977006D01*
X74810120Y-46947240D01*
X74841060Y-46926511D01*
X74903034Y-46899537D01*
X74982349Y-46879998D01*
X75074747Y-46868746D01*
X75141667Y-46866270D01*
X75229156Y-46865822D01*
X75229156Y-47306089D01*
X75385775Y-47306089D01*
X75386332Y-47285021D01*
X75386950Y-47224311D01*
X75387175Y-47145526D01*
X75387200Y-47083920D01*
X75387200Y-46774485D01*
X75359491Y-46746776D01*
X75347194Y-46735544D01*
X75333897Y-46727853D01*
X75315328Y-46723040D01*
X75287214Y-46720446D01*
X75245283Y-46719410D01*
X75185263Y-46719270D01*
X75181691Y-46719275D01*
G36*
X72455335Y-46721034D02*
X72435745Y-46728035D01*
X72434990Y-46728377D01*
X72408387Y-46748678D01*
X72393730Y-46769561D01*
X72390862Y-46779352D01*
X72391004Y-46792361D01*
X72395039Y-46810895D01*
X72403854Y-46837257D01*
X72418331Y-46873752D01*
X72439355Y-46922687D01*
X72467812Y-46986365D01*
X72504585Y-47067093D01*
X72524825Y-47111216D01*
X72561375Y-47189985D01*
X72595685Y-47262423D01*
X72626448Y-47325880D01*
X72652352Y-47377708D01*
X72672090Y-47415259D01*
X72684350Y-47435884D01*
X72686776Y-47438733D01*
X72717817Y-47451302D01*
X72752879Y-47449619D01*
X72781000Y-47434332D01*
X72782146Y-47433089D01*
X72793332Y-47416154D01*
X72812096Y-47383170D01*
X72836125Y-47338380D01*
X72863103Y-47286032D01*
X72872799Y-47266742D01*
X72945986Y-47120150D01*
X73025760Y-47279393D01*
X73054233Y-47334415D01*
X73080650Y-47382132D01*
X73102852Y-47418893D01*
X73118681Y-47441044D01*
X73124046Y-47445741D01*
X73165743Y-47452102D01*
X73200151Y-47438733D01*
X73210272Y-47424446D01*
X73227786Y-47392692D01*
X73251265Y-47346597D01*
X73279280Y-47289285D01*
X73310401Y-47223880D01*
X73343201Y-47153507D01*
X73376250Y-47081291D01*
X73408119Y-47010355D01*
X73437381Y-46943825D01*
X73462605Y-46884826D01*
X73482364Y-46836481D01*
X73495228Y-46801915D01*
X73499769Y-46784253D01*
X73499723Y-46783613D01*
X73488674Y-46761388D01*
X73466590Y-46738753D01*
X73465290Y-46737768D01*
X73438147Y-46722425D01*
X73413042Y-46722574D01*
X73403632Y-46725466D01*
X73392166Y-46731718D01*
X73379990Y-46744014D01*
X73365643Y-46764908D01*
X73347664Y-46796949D01*
X73324593Y-46842688D01*
X73294970Y-46904677D01*
X73268255Y-46961898D01*
X73237520Y-47028226D01*
X73209979Y-47087874D01*
X73187062Y-47137725D01*
X73170202Y-47174664D01*
X73160827Y-47195573D01*
X73159460Y-47198845D01*
X73153311Y-47193497D01*
X73139178Y-47171109D01*
X73118943Y-47134946D01*
X73094485Y-47088277D01*
X73084752Y-47069022D01*
X73051783Y-47004004D01*
X73026357Y-46956654D01*
X73006388Y-46924219D01*
X72989790Y-46903946D01*
X72974476Y-46893082D01*
X72958360Y-46888875D01*
X72947857Y-46888400D01*
X72929330Y-46890042D01*
X72913096Y-46896831D01*
X72896965Y-46911566D01*
X72878749Y-46937044D01*
X72856261Y-46976061D01*
X72827311Y-47031414D01*
X72811338Y-47062903D01*
X72785430Y-47113087D01*
X72762833Y-47154704D01*
X72745542Y-47184242D01*
X72735550Y-47198189D01*
X72734191Y-47198770D01*
X72727739Y-47187793D01*
X72713292Y-47159290D01*
X72692297Y-47116244D01*
X72666203Y-47061638D01*
X72636454Y-46998454D01*
X72621820Y-46967071D01*
X72583750Y-46886078D01*
X72553095Y-46823756D01*
X72528263Y-46778071D01*
X72507663Y-46746989D01*
X72489702Y-46728478D01*
X72472790Y-46720504D01*
X72455335Y-46721034D01*
X72455335Y-46721034D01*
G37*
X72455335Y-46721034D02*
X72435745Y-46728035D01*
X72434990Y-46728377D01*
X72408387Y-46748678D01*
X72393730Y-46769561D01*
X72390862Y-46779352D01*
X72391004Y-46792361D01*
X72395039Y-46810895D01*
X72403854Y-46837257D01*
X72418331Y-46873752D01*
X72439355Y-46922687D01*
X72467812Y-46986365D01*
X72504585Y-47067093D01*
X72524825Y-47111216D01*
X72561375Y-47189985D01*
X72595685Y-47262423D01*
X72626448Y-47325880D01*
X72652352Y-47377708D01*
X72672090Y-47415259D01*
X72684350Y-47435884D01*
X72686776Y-47438733D01*
X72717817Y-47451302D01*
X72752879Y-47449619D01*
X72781000Y-47434332D01*
X72782146Y-47433089D01*
X72793332Y-47416154D01*
X72812096Y-47383170D01*
X72836125Y-47338380D01*
X72863103Y-47286032D01*
X72872799Y-47266742D01*
X72945986Y-47120150D01*
X73025760Y-47279393D01*
X73054233Y-47334415D01*
X73080650Y-47382132D01*
X73102852Y-47418893D01*
X73118681Y-47441044D01*
X73124046Y-47445741D01*
X73165743Y-47452102D01*
X73200151Y-47438733D01*
X73210272Y-47424446D01*
X73227786Y-47392692D01*
X73251265Y-47346597D01*
X73279280Y-47289285D01*
X73310401Y-47223880D01*
X73343201Y-47153507D01*
X73376250Y-47081291D01*
X73408119Y-47010355D01*
X73437381Y-46943825D01*
X73462605Y-46884826D01*
X73482364Y-46836481D01*
X73495228Y-46801915D01*
X73499769Y-46784253D01*
X73499723Y-46783613D01*
X73488674Y-46761388D01*
X73466590Y-46738753D01*
X73465290Y-46737768D01*
X73438147Y-46722425D01*
X73413042Y-46722574D01*
X73403632Y-46725466D01*
X73392166Y-46731718D01*
X73379990Y-46744014D01*
X73365643Y-46764908D01*
X73347664Y-46796949D01*
X73324593Y-46842688D01*
X73294970Y-46904677D01*
X73268255Y-46961898D01*
X73237520Y-47028226D01*
X73209979Y-47087874D01*
X73187062Y-47137725D01*
X73170202Y-47174664D01*
X73160827Y-47195573D01*
X73159460Y-47198845D01*
X73153311Y-47193497D01*
X73139178Y-47171109D01*
X73118943Y-47134946D01*
X73094485Y-47088277D01*
X73084752Y-47069022D01*
X73051783Y-47004004D01*
X73026357Y-46956654D01*
X73006388Y-46924219D01*
X72989790Y-46903946D01*
X72974476Y-46893082D01*
X72958360Y-46888875D01*
X72947857Y-46888400D01*
X72929330Y-46890042D01*
X72913096Y-46896831D01*
X72896965Y-46911566D01*
X72878749Y-46937044D01*
X72856261Y-46976061D01*
X72827311Y-47031414D01*
X72811338Y-47062903D01*
X72785430Y-47113087D01*
X72762833Y-47154704D01*
X72745542Y-47184242D01*
X72735550Y-47198189D01*
X72734191Y-47198770D01*
X72727739Y-47187793D01*
X72713292Y-47159290D01*
X72692297Y-47116244D01*
X72666203Y-47061638D01*
X72636454Y-46998454D01*
X72621820Y-46967071D01*
X72583750Y-46886078D01*
X72553095Y-46823756D01*
X72528263Y-46778071D01*
X72507663Y-46746989D01*
X72489702Y-46728478D01*
X72472790Y-46720504D01*
X72455335Y-46721034D01*
G36*
X72011386Y-46725877D02*
X71987673Y-46740647D01*
X71961022Y-46762227D01*
X71961022Y-47083773D01*
X71961107Y-47177830D01*
X71961471Y-47251932D01*
X71962276Y-47308704D01*
X71963687Y-47350768D01*
X71965867Y-47380748D01*
X71968979Y-47401267D01*
X71973186Y-47414949D01*
X71978652Y-47424416D01*
X71982528Y-47429082D01*
X72013966Y-47449575D01*
X72049767Y-47448739D01*
X72081127Y-47431264D01*
X72107778Y-47409684D01*
X72107778Y-46762227D01*
X72081127Y-46740647D01*
X72055406Y-46724949D01*
X72034400Y-46719067D01*
X72011386Y-46725877D01*
X72011386Y-46725877D01*
G37*
X72011386Y-46725877D02*
X71987673Y-46740647D01*
X71961022Y-46762227D01*
X71961022Y-47083773D01*
X71961107Y-47177830D01*
X71961471Y-47251932D01*
X71962276Y-47308704D01*
X71963687Y-47350768D01*
X71965867Y-47380748D01*
X71968979Y-47401267D01*
X71973186Y-47414949D01*
X71978652Y-47424416D01*
X71982528Y-47429082D01*
X72013966Y-47449575D01*
X72049767Y-47448739D01*
X72081127Y-47431264D01*
X72107778Y-47409684D01*
X72107778Y-46762227D01*
X72081127Y-46740647D01*
X72055406Y-46724949D01*
X72034400Y-46719067D01*
X72011386Y-46725877D01*
G36*
X71236935Y-46719163D02*
X71158228Y-46719542D01*
X71097137Y-46720333D01*
X71051183Y-46721670D01*
X71017886Y-46723683D01*
X70994764Y-46726506D01*
X70979338Y-46730269D01*
X70969129Y-46735105D01*
X70964187Y-46738822D01*
X70938543Y-46771358D01*
X70935441Y-46805138D01*
X70951289Y-46835826D01*
X70961652Y-46848089D01*
X70972804Y-46856450D01*
X70988965Y-46861657D01*
X71014358Y-46864457D01*
X71053202Y-46865596D01*
X71109720Y-46865821D01*
X71120820Y-46865822D01*
X71266756Y-46865822D01*
X71266756Y-47136756D01*
X71266852Y-47222154D01*
X71267289Y-47287864D01*
X71268288Y-47336774D01*
X71270072Y-47371773D01*
X71272863Y-47395749D01*
X71276883Y-47411593D01*
X71282355Y-47422191D01*
X71289334Y-47430267D01*
X71322266Y-47450112D01*
X71356646Y-47448548D01*
X71387824Y-47425906D01*
X71390114Y-47423100D01*
X71397571Y-47412492D01*
X71403253Y-47400081D01*
X71407399Y-47382850D01*
X71410250Y-47357784D01*
X71412046Y-47321867D01*
X71413028Y-47272083D01*
X71413436Y-47205417D01*
X71413511Y-47129589D01*
X71413511Y-46865822D01*
X71552873Y-46865822D01*
X71612678Y-46865418D01*
X71654082Y-46863840D01*
X71681252Y-46860547D01*
X71698354Y-46854992D01*
X71709557Y-46846631D01*
X71710917Y-46845178D01*
X71727275Y-46811939D01*
X71725828Y-46774362D01*
X71707022Y-46741645D01*
X71699750Y-46735298D01*
X71690373Y-46730266D01*
X71676391Y-46726396D01*
X71655304Y-46723537D01*
X71624611Y-46721535D01*
X71581811Y-46720239D01*
X71524405Y-46719498D01*
X71449890Y-46719158D01*
X71355767Y-46719068D01*
X71335740Y-46719067D01*
X71236935Y-46719163D01*
X71236935Y-46719163D01*
G37*
X71236935Y-46719163D02*
X71158228Y-46719542D01*
X71097137Y-46720333D01*
X71051183Y-46721670D01*
X71017886Y-46723683D01*
X70994764Y-46726506D01*
X70979338Y-46730269D01*
X70969129Y-46735105D01*
X70964187Y-46738822D01*
X70938543Y-46771358D01*
X70935441Y-46805138D01*
X70951289Y-46835826D01*
X70961652Y-46848089D01*
X70972804Y-46856450D01*
X70988965Y-46861657D01*
X71014358Y-46864457D01*
X71053202Y-46865596D01*
X71109720Y-46865821D01*
X71120820Y-46865822D01*
X71266756Y-46865822D01*
X71266756Y-47136756D01*
X71266852Y-47222154D01*
X71267289Y-47287864D01*
X71268288Y-47336774D01*
X71270072Y-47371773D01*
X71272863Y-47395749D01*
X71276883Y-47411593D01*
X71282355Y-47422191D01*
X71289334Y-47430267D01*
X71322266Y-47450112D01*
X71356646Y-47448548D01*
X71387824Y-47425906D01*
X71390114Y-47423100D01*
X71397571Y-47412492D01*
X71403253Y-47400081D01*
X71407399Y-47382850D01*
X71410250Y-47357784D01*
X71412046Y-47321867D01*
X71413028Y-47272083D01*
X71413436Y-47205417D01*
X71413511Y-47129589D01*
X71413511Y-46865822D01*
X71552873Y-46865822D01*
X71612678Y-46865418D01*
X71654082Y-46863840D01*
X71681252Y-46860547D01*
X71698354Y-46854992D01*
X71709557Y-46846631D01*
X71710917Y-46845178D01*
X71727275Y-46811939D01*
X71725828Y-46774362D01*
X71707022Y-46741645D01*
X71699750Y-46735298D01*
X71690373Y-46730266D01*
X71676391Y-46726396D01*
X71655304Y-46723537D01*
X71624611Y-46721535D01*
X71581811Y-46720239D01*
X71524405Y-46719498D01*
X71449890Y-46719158D01*
X71355767Y-46719068D01*
X71335740Y-46719067D01*
X71236935Y-46719163D01*
G36*
X69971177Y-46724533D02*
X69939798Y-46746776D01*
X69912089Y-46774485D01*
X69912089Y-47083920D01*
X69912162Y-47175799D01*
X69912505Y-47247840D01*
X69913308Y-47302780D01*
X69914759Y-47343360D01*
X69917048Y-47372317D01*
X69920364Y-47392391D01*
X69924895Y-47406321D01*
X69930831Y-47416845D01*
X69935486Y-47423100D01*
X69966217Y-47447673D01*
X70001504Y-47450341D01*
X70033755Y-47435271D01*
X70044412Y-47426374D01*
X70051536Y-47414557D01*
X70055833Y-47395526D01*
X70058009Y-47364992D01*
X70058772Y-47318662D01*
X70058845Y-47282871D01*
X70058845Y-47148045D01*
X70555556Y-47148045D01*
X70555556Y-47270700D01*
X70556069Y-47326787D01*
X70558124Y-47365333D01*
X70562492Y-47391361D01*
X70569944Y-47409897D01*
X70578953Y-47423100D01*
X70609856Y-47447604D01*
X70644804Y-47450506D01*
X70678262Y-47433089D01*
X70687396Y-47423959D01*
X70693848Y-47411855D01*
X70698103Y-47393001D01*
X70700648Y-47363620D01*
X70701971Y-47319937D01*
X70702557Y-47258175D01*
X70702625Y-47244000D01*
X70703109Y-47127631D01*
X70703359Y-47031727D01*
X70703277Y-46954177D01*
X70702769Y-46892869D01*
X70701738Y-46845690D01*
X70700087Y-46810530D01*
X70697721Y-46785276D01*
X70694543Y-46767817D01*
X70690456Y-46756041D01*
X70685366Y-46747835D01*
X70679734Y-46741645D01*
X70647872Y-46721844D01*
X70614643Y-46724533D01*
X70583265Y-46746776D01*
X70570567Y-46761126D01*
X70562474Y-46776978D01*
X70557958Y-46799554D01*
X70555994Y-46834078D01*
X70555556Y-46885776D01*
X70555556Y-47001289D01*
X70058845Y-47001289D01*
X70058845Y-46882756D01*
X70058338Y-46828148D01*
X70056302Y-46791275D01*
X70051965Y-46767307D01*
X70044553Y-46751415D01*
X70036267Y-46741645D01*
X70004406Y-46721844D01*
X69971177Y-46724533D01*
X69971177Y-46724533D01*
G37*
X69971177Y-46724533D02*
X69939798Y-46746776D01*
X69912089Y-46774485D01*
X69912089Y-47083920D01*
X69912162Y-47175799D01*
X69912505Y-47247840D01*
X69913308Y-47302780D01*
X69914759Y-47343360D01*
X69917048Y-47372317D01*
X69920364Y-47392391D01*
X69924895Y-47406321D01*
X69930831Y-47416845D01*
X69935486Y-47423100D01*
X69966217Y-47447673D01*
X70001504Y-47450341D01*
X70033755Y-47435271D01*
X70044412Y-47426374D01*
X70051536Y-47414557D01*
X70055833Y-47395526D01*
X70058009Y-47364992D01*
X70058772Y-47318662D01*
X70058845Y-47282871D01*
X70058845Y-47148045D01*
X70555556Y-47148045D01*
X70555556Y-47270700D01*
X70556069Y-47326787D01*
X70558124Y-47365333D01*
X70562492Y-47391361D01*
X70569944Y-47409897D01*
X70578953Y-47423100D01*
X70609856Y-47447604D01*
X70644804Y-47450506D01*
X70678262Y-47433089D01*
X70687396Y-47423959D01*
X70693848Y-47411855D01*
X70698103Y-47393001D01*
X70700648Y-47363620D01*
X70701971Y-47319937D01*
X70702557Y-47258175D01*
X70702625Y-47244000D01*
X70703109Y-47127631D01*
X70703359Y-47031727D01*
X70703277Y-46954177D01*
X70702769Y-46892869D01*
X70701738Y-46845690D01*
X70700087Y-46810530D01*
X70697721Y-46785276D01*
X70694543Y-46767817D01*
X70690456Y-46756041D01*
X70685366Y-46747835D01*
X70679734Y-46741645D01*
X70647872Y-46721844D01*
X70614643Y-46724533D01*
X70583265Y-46746776D01*
X70570567Y-46761126D01*
X70562474Y-46776978D01*
X70557958Y-46799554D01*
X70555994Y-46834078D01*
X70555556Y-46885776D01*
X70555556Y-47001289D01*
X70058845Y-47001289D01*
X70058845Y-46882756D01*
X70058338Y-46828148D01*
X70056302Y-46791275D01*
X70051965Y-46767307D01*
X70044553Y-46751415D01*
X70036267Y-46741645D01*
X70004406Y-46721844D01*
X69971177Y-46724533D01*
G36*
X79146400Y-41939054D02*
X79135535Y-42052993D01*
X79103918Y-42160616D01*
X79053015Y-42259615D01*
X78984293Y-42347684D01*
X78899219Y-42422516D01*
X78802232Y-42480384D01*
X78695964Y-42520005D01*
X78588950Y-42538573D01*
X78483300Y-42537434D01*
X78381125Y-42517930D01*
X78284534Y-42481406D01*
X78195638Y-42429205D01*
X78116546Y-42362673D01*
X78049369Y-42283152D01*
X77996217Y-42191987D01*
X77959199Y-42090523D01*
X77940427Y-41980102D01*
X77938489Y-41930206D01*
X77938489Y-41842267D01*
X77886560Y-41842267D01*
X77850253Y-41845111D01*
X77823355Y-41856911D01*
X77796249Y-41880649D01*
X77757867Y-41919031D01*
X77757867Y-44110602D01*
X77757876Y-44372739D01*
X77757908Y-44613241D01*
X77757972Y-44833048D01*
X77758076Y-45033101D01*
X77758227Y-45214344D01*
X77758434Y-45377716D01*
X77758706Y-45524160D01*
X77759050Y-45654617D01*
X77759474Y-45770029D01*
X77759987Y-45871338D01*
X77760597Y-45959484D01*
X77761312Y-46035410D01*
X77762140Y-46100057D01*
X77763089Y-46154367D01*
X77764167Y-46199280D01*
X77765383Y-46235740D01*
X77766745Y-46264687D01*
X77768261Y-46287063D01*
X77769938Y-46303809D01*
X77771786Y-46315868D01*
X77773813Y-46324180D01*
X77776025Y-46329687D01*
X77777108Y-46331537D01*
X77781271Y-46338549D01*
X77784805Y-46344996D01*
X77788635Y-46350900D01*
X77793682Y-46356286D01*
X77800871Y-46361178D01*
X77811123Y-46365598D01*
X77825364Y-46369572D01*
X77844514Y-46373121D01*
X77869499Y-46376270D01*
X77901240Y-46379042D01*
X77940662Y-46381461D01*
X77988686Y-46383551D01*
X78046237Y-46385335D01*
X78114237Y-46386837D01*
X78193610Y-46388080D01*
X78285279Y-46389089D01*
X78390166Y-46389885D01*
X78509196Y-46390494D01*
X78643290Y-46390939D01*
X78793373Y-46391243D01*
X78960367Y-46391430D01*
X79145196Y-46391524D01*
X79348783Y-46391548D01*
X79572050Y-46391525D01*
X79815922Y-46391480D01*
X80081321Y-46391437D01*
X80119704Y-46391432D01*
X80386682Y-46391389D01*
X80632002Y-46391318D01*
X80856583Y-46391213D01*
X81061345Y-46391066D01*
X81247206Y-46390869D01*
X81415088Y-46390616D01*
X81565908Y-46390300D01*
X81700587Y-46389913D01*
X81820044Y-46389447D01*
X81925199Y-46388897D01*
X82016971Y-46388253D01*
X82096279Y-46387511D01*
X82164043Y-46386661D01*
X82221182Y-46385697D01*
X82268617Y-46384611D01*
X82307266Y-46383397D01*
X82338049Y-46382047D01*
X82361885Y-46380555D01*
X82379694Y-46378911D01*
X82392395Y-46377111D01*
X82400908Y-46375145D01*
X82405266Y-46373477D01*
X82413728Y-46369906D01*
X82421497Y-46367270D01*
X82428602Y-46364634D01*
X82435073Y-46361062D01*
X82440939Y-46355621D01*
X82446229Y-46347375D01*
X82450974Y-46335390D01*
X82455202Y-46318731D01*
X82458943Y-46296463D01*
X82462227Y-46267652D01*
X82465083Y-46231363D01*
X82467540Y-46186661D01*
X82469629Y-46132611D01*
X82471378Y-46068279D01*
X82472817Y-45992730D01*
X82473976Y-45905030D01*
X82474883Y-45804243D01*
X82475569Y-45689434D01*
X82476063Y-45559670D01*
X82476395Y-45414015D01*
X82476593Y-45251535D01*
X82476687Y-45071295D01*
X82476708Y-44872360D01*
X82476685Y-44653796D01*
X82476646Y-44414668D01*
X82476622Y-44154040D01*
X82476622Y-44111889D01*
X82476636Y-43848992D01*
X82476661Y-43607732D01*
X82476671Y-43387165D01*
X82476642Y-43186352D01*
X82476548Y-43004349D01*
X82476362Y-42840216D01*
X82476059Y-42693011D01*
X82475614Y-42561792D01*
X82475034Y-42451867D01*
X82172197Y-42451867D01*
X82132407Y-42509711D01*
X82121236Y-42525479D01*
X82111166Y-42539441D01*
X82102138Y-42552784D01*
X82094097Y-42566693D01*
X82086986Y-42582356D01*
X82080747Y-42600958D01*
X82075325Y-42623686D01*
X82070662Y-42651727D01*
X82066701Y-42686267D01*
X82063385Y-42728492D01*
X82060659Y-42779589D01*
X82058464Y-42840744D01*
X82056745Y-42913144D01*
X82055444Y-42997975D01*
X82054505Y-43096422D01*
X82053870Y-43209674D01*
X82053484Y-43338916D01*
X82053288Y-43485334D01*
X82053227Y-43650116D01*
X82053243Y-43834447D01*
X82053280Y-44039513D01*
X82053289Y-44162133D01*
X82053265Y-44379082D01*
X82053231Y-44574642D01*
X82053243Y-44749999D01*
X82053358Y-44906341D01*
X82053630Y-45044857D01*
X82054118Y-45166734D01*
X82054876Y-45273160D01*
X82055962Y-45365322D01*
X82057431Y-45444409D01*
X82059340Y-45511608D01*
X82061744Y-45568107D01*
X82064701Y-45615093D01*
X82068266Y-45653755D01*
X82072495Y-45685280D01*
X82077446Y-45710855D01*
X82083173Y-45731670D01*
X82089733Y-45748911D01*
X82097183Y-45763765D01*
X82105579Y-45777422D01*
X82114976Y-45791069D01*
X82125432Y-45805893D01*
X82131523Y-45814783D01*
X82170296Y-45872400D01*
X81638732Y-45872400D01*
X81515483Y-45872365D01*
X81412987Y-45872215D01*
X81329420Y-45871878D01*
X81262956Y-45871286D01*
X81211771Y-45870367D01*
X81174041Y-45869051D01*
X81147940Y-45867269D01*
X81131644Y-45864951D01*
X81123328Y-45862026D01*
X81121168Y-45858424D01*
X81123339Y-45854075D01*
X81124535Y-45852645D01*
X81149685Y-45815573D01*
X81175583Y-45762772D01*
X81199192Y-45700770D01*
X81207461Y-45674357D01*
X81212078Y-45656416D01*
X81215979Y-45635355D01*
X81219248Y-45609089D01*
X81221966Y-45575532D01*
X81224215Y-45532599D01*
X81226077Y-45478204D01*
X81227636Y-45410262D01*
X81228972Y-45326688D01*
X81230169Y-45225395D01*
X81231308Y-45104300D01*
X81231685Y-45059600D01*
X81232702Y-44934449D01*
X81233460Y-44830082D01*
X81233903Y-44744707D01*
X81233970Y-44676533D01*
X81233605Y-44623765D01*
X81232748Y-44584614D01*
X81231341Y-44557285D01*
X81229325Y-44539986D01*
X81226643Y-44530926D01*
X81223236Y-44528312D01*
X81219044Y-44530351D01*
X81214571Y-44534667D01*
X81204216Y-44547602D01*
X81182158Y-44576676D01*
X81149957Y-44619759D01*
X81109174Y-44674718D01*
X81061370Y-44739423D01*
X81008105Y-44811742D01*
X80950940Y-44889544D01*
X80891437Y-44970698D01*
X80831155Y-45053072D01*
X80771655Y-45134536D01*
X80714498Y-45212957D01*
X80661245Y-45286204D01*
X80613457Y-45352147D01*
X80572693Y-45408654D01*
X80540516Y-45453593D01*
X80518485Y-45484834D01*
X80513917Y-45491466D01*
X80490996Y-45528369D01*
X80464188Y-45576359D01*
X80438789Y-45625897D01*
X80435568Y-45632577D01*
X80413890Y-45680772D01*
X80401304Y-45718334D01*
X80395574Y-45754160D01*
X80394456Y-45796200D01*
X80395090Y-45872400D01*
X79240651Y-45872400D01*
X79331815Y-45778669D01*
X79378612Y-45728775D01*
X79428899Y-45672295D01*
X79474944Y-45618026D01*
X79495369Y-45592673D01*
X79525807Y-45553128D01*
X79565862Y-45499916D01*
X79614361Y-45434667D01*
X79670135Y-45359011D01*
X79732011Y-45274577D01*
X79798819Y-45182994D01*
X79869387Y-45085892D01*
X79942545Y-44984901D01*
X80017121Y-44881650D01*
X80091944Y-44777768D01*
X80165843Y-44674885D01*
X80237646Y-44574631D01*
X80306184Y-44478636D01*
X80370284Y-44388527D01*
X80428775Y-44305936D01*
X80480486Y-44232492D01*
X80524247Y-44169824D01*
X80558885Y-44119561D01*
X80583230Y-44083334D01*
X80596111Y-44062771D01*
X80597869Y-44058668D01*
X80589910Y-44047342D01*
X80569115Y-44020162D01*
X80536847Y-43978829D01*
X80494470Y-43925044D01*
X80443347Y-43860506D01*
X80384841Y-43786918D01*
X80320314Y-43705978D01*
X80251131Y-43619388D01*
X80178653Y-43528848D01*
X80104246Y-43436060D01*
X80044517Y-43361702D01*
X79033511Y-43361702D01*
X79027602Y-43374659D01*
X79013272Y-43396908D01*
X79012225Y-43398391D01*
X78993438Y-43428544D01*
X78973791Y-43465375D01*
X78969892Y-43473511D01*
X78966356Y-43481940D01*
X78963230Y-43492059D01*
X78960486Y-43505260D01*
X78958092Y-43522938D01*
X78956019Y-43546484D01*
X78954235Y-43577293D01*
X78952712Y-43616757D01*
X78951419Y-43666269D01*
X78950326Y-43727223D01*
X78949403Y-43801011D01*
X78948619Y-43889028D01*
X78947945Y-43992665D01*
X78947350Y-44113316D01*
X78946805Y-44252374D01*
X78946279Y-44411232D01*
X78945745Y-44590089D01*
X78945206Y-44775207D01*
X78944772Y-44939145D01*
X78944509Y-45083303D01*
X78944484Y-45209079D01*
X78944765Y-45317871D01*
X78945419Y-45411077D01*
X78946514Y-45490097D01*
X78948118Y-45556328D01*
X78950297Y-45611170D01*
X78953119Y-45656021D01*
X78956651Y-45692278D01*
X78960961Y-45721341D01*
X78966117Y-45744609D01*
X78972185Y-45763479D01*
X78979233Y-45779351D01*
X78987329Y-45793622D01*
X78996540Y-45807691D01*
X79005040Y-45820158D01*
X79022176Y-45846452D01*
X79032322Y-45864037D01*
X79033511Y-45867257D01*
X79022604Y-45868334D01*
X78991411Y-45869335D01*
X78942223Y-45870235D01*
X78877333Y-45871010D01*
X78799030Y-45871637D01*
X78709607Y-45872091D01*
X78611356Y-45872349D01*
X78542445Y-45872400D01*
X78437452Y-45872180D01*
X78340610Y-45871548D01*
X78254107Y-45870549D01*
X78180132Y-45869227D01*
X78120874Y-45867626D01*
X78078520Y-45865791D01*
X78055260Y-45863765D01*
X78051378Y-45862493D01*
X78059076Y-45847591D01*
X78067074Y-45839560D01*
X78080246Y-45822434D01*
X78097485Y-45792183D01*
X78109407Y-45767622D01*
X78136045Y-45708711D01*
X78139120Y-44531845D01*
X78142195Y-43354978D01*
X78587853Y-43354978D01*
X78685670Y-43355142D01*
X78776064Y-43355611D01*
X78856630Y-43356347D01*
X78924962Y-43357316D01*
X78978656Y-43358480D01*
X79015305Y-43359803D01*
X79032504Y-43361249D01*
X79033511Y-43361702D01*
X80044517Y-43361702D01*
X80029270Y-43342722D01*
X79955090Y-43250537D01*
X79883069Y-43161204D01*
X79814569Y-43076424D01*
X79750955Y-42997898D01*
X79693588Y-42927326D01*
X79643833Y-42866409D01*
X79603052Y-42816847D01*
X79585888Y-42796178D01*
X79499596Y-42695516D01*
X79422997Y-42612259D01*
X79354183Y-42544438D01*
X79291248Y-42490089D01*
X79281867Y-42482722D01*
X79242356Y-42452117D01*
X80374116Y-42451867D01*
X80368827Y-42499844D01*
X80372130Y-42557188D01*
X80393661Y-42625463D01*
X80433635Y-42705212D01*
X80478943Y-42777495D01*
X80495161Y-42800140D01*
X80523214Y-42837696D01*
X80561430Y-42888021D01*
X80608137Y-42948973D01*
X80661661Y-43018411D01*
X80720331Y-43094194D01*
X80782475Y-43174180D01*
X80846421Y-43256228D01*
X80910495Y-43338196D01*
X80973027Y-43417943D01*
X81032343Y-43493327D01*
X81086771Y-43562207D01*
X81134639Y-43622442D01*
X81174275Y-43671889D01*
X81204006Y-43708408D01*
X81222161Y-43729858D01*
X81225220Y-43733156D01*
X81228079Y-43725149D01*
X81230293Y-43694855D01*
X81231857Y-43642556D01*
X81232767Y-43568531D01*
X81233020Y-43473063D01*
X81232613Y-43356434D01*
X81231704Y-43236445D01*
X81230382Y-43104333D01*
X81228857Y-42992594D01*
X81226881Y-42899025D01*
X81224206Y-42821419D01*
X81220582Y-42757574D01*
X81215761Y-42705283D01*
X81209494Y-42662344D01*
X81201532Y-42626551D01*
X81191627Y-42595700D01*
X81179531Y-42567586D01*
X81164993Y-42540005D01*
X81150311Y-42514966D01*
X81112314Y-42451867D01*
X82172197Y-42451867D01*
X82475034Y-42451867D01*
X82475001Y-42445617D01*
X82474195Y-42343544D01*
X82473170Y-42254633D01*
X82471900Y-42177941D01*
X82470360Y-42112527D01*
X82468524Y-42057449D01*
X82466367Y-42011765D01*
X82463863Y-41974534D01*
X82460987Y-41944813D01*
X82457713Y-41921662D01*
X82454015Y-41904139D01*
X82449869Y-41891301D01*
X82445247Y-41882208D01*
X82440126Y-41875918D01*
X82434478Y-41871488D01*
X82428279Y-41867978D01*
X82421504Y-41864445D01*
X82415508Y-41860876D01*
X82410275Y-41858300D01*
X82402099Y-41855972D01*
X82389886Y-41853878D01*
X82372541Y-41852007D01*
X82348969Y-41850347D01*
X82318077Y-41848884D01*
X82278768Y-41847608D01*
X82229950Y-41846504D01*
X82170527Y-41845561D01*
X82099404Y-41844767D01*
X82015488Y-41844109D01*
X81917683Y-41843575D01*
X81804894Y-41843153D01*
X81676029Y-41842829D01*
X81529991Y-41842592D01*
X81365686Y-41842430D01*
X81182020Y-41842330D01*
X80977897Y-41842280D01*
X80766753Y-41842267D01*
X79146400Y-41842267D01*
X79146400Y-41939054D01*
X79146400Y-41939054D01*
G37*
X79146400Y-41939054D02*
X79135535Y-42052993D01*
X79103918Y-42160616D01*
X79053015Y-42259615D01*
X78984293Y-42347684D01*
X78899219Y-42422516D01*
X78802232Y-42480384D01*
X78695964Y-42520005D01*
X78588950Y-42538573D01*
X78483300Y-42537434D01*
X78381125Y-42517930D01*
X78284534Y-42481406D01*
X78195638Y-42429205D01*
X78116546Y-42362673D01*
X78049369Y-42283152D01*
X77996217Y-42191987D01*
X77959199Y-42090523D01*
X77940427Y-41980102D01*
X77938489Y-41930206D01*
X77938489Y-41842267D01*
X77886560Y-41842267D01*
X77850253Y-41845111D01*
X77823355Y-41856911D01*
X77796249Y-41880649D01*
X77757867Y-41919031D01*
X77757867Y-44110602D01*
X77757876Y-44372739D01*
X77757908Y-44613241D01*
X77757972Y-44833048D01*
X77758076Y-45033101D01*
X77758227Y-45214344D01*
X77758434Y-45377716D01*
X77758706Y-45524160D01*
X77759050Y-45654617D01*
X77759474Y-45770029D01*
X77759987Y-45871338D01*
X77760597Y-45959484D01*
X77761312Y-46035410D01*
X77762140Y-46100057D01*
X77763089Y-46154367D01*
X77764167Y-46199280D01*
X77765383Y-46235740D01*
X77766745Y-46264687D01*
X77768261Y-46287063D01*
X77769938Y-46303809D01*
X77771786Y-46315868D01*
X77773813Y-46324180D01*
X77776025Y-46329687D01*
X77777108Y-46331537D01*
X77781271Y-46338549D01*
X77784805Y-46344996D01*
X77788635Y-46350900D01*
X77793682Y-46356286D01*
X77800871Y-46361178D01*
X77811123Y-46365598D01*
X77825364Y-46369572D01*
X77844514Y-46373121D01*
X77869499Y-46376270D01*
X77901240Y-46379042D01*
X77940662Y-46381461D01*
X77988686Y-46383551D01*
X78046237Y-46385335D01*
X78114237Y-46386837D01*
X78193610Y-46388080D01*
X78285279Y-46389089D01*
X78390166Y-46389885D01*
X78509196Y-46390494D01*
X78643290Y-46390939D01*
X78793373Y-46391243D01*
X78960367Y-46391430D01*
X79145196Y-46391524D01*
X79348783Y-46391548D01*
X79572050Y-46391525D01*
X79815922Y-46391480D01*
X80081321Y-46391437D01*
X80119704Y-46391432D01*
X80386682Y-46391389D01*
X80632002Y-46391318D01*
X80856583Y-46391213D01*
X81061345Y-46391066D01*
X81247206Y-46390869D01*
X81415088Y-46390616D01*
X81565908Y-46390300D01*
X81700587Y-46389913D01*
X81820044Y-46389447D01*
X81925199Y-46388897D01*
X82016971Y-46388253D01*
X82096279Y-46387511D01*
X82164043Y-46386661D01*
X82221182Y-46385697D01*
X82268617Y-46384611D01*
X82307266Y-46383397D01*
X82338049Y-46382047D01*
X82361885Y-46380555D01*
X82379694Y-46378911D01*
X82392395Y-46377111D01*
X82400908Y-46375145D01*
X82405266Y-46373477D01*
X82413728Y-46369906D01*
X82421497Y-46367270D01*
X82428602Y-46364634D01*
X82435073Y-46361062D01*
X82440939Y-46355621D01*
X82446229Y-46347375D01*
X82450974Y-46335390D01*
X82455202Y-46318731D01*
X82458943Y-46296463D01*
X82462227Y-46267652D01*
X82465083Y-46231363D01*
X82467540Y-46186661D01*
X82469629Y-46132611D01*
X82471378Y-46068279D01*
X82472817Y-45992730D01*
X82473976Y-45905030D01*
X82474883Y-45804243D01*
X82475569Y-45689434D01*
X82476063Y-45559670D01*
X82476395Y-45414015D01*
X82476593Y-45251535D01*
X82476687Y-45071295D01*
X82476708Y-44872360D01*
X82476685Y-44653796D01*
X82476646Y-44414668D01*
X82476622Y-44154040D01*
X82476622Y-44111889D01*
X82476636Y-43848992D01*
X82476661Y-43607732D01*
X82476671Y-43387165D01*
X82476642Y-43186352D01*
X82476548Y-43004349D01*
X82476362Y-42840216D01*
X82476059Y-42693011D01*
X82475614Y-42561792D01*
X82475034Y-42451867D01*
X82172197Y-42451867D01*
X82132407Y-42509711D01*
X82121236Y-42525479D01*
X82111166Y-42539441D01*
X82102138Y-42552784D01*
X82094097Y-42566693D01*
X82086986Y-42582356D01*
X82080747Y-42600958D01*
X82075325Y-42623686D01*
X82070662Y-42651727D01*
X82066701Y-42686267D01*
X82063385Y-42728492D01*
X82060659Y-42779589D01*
X82058464Y-42840744D01*
X82056745Y-42913144D01*
X82055444Y-42997975D01*
X82054505Y-43096422D01*
X82053870Y-43209674D01*
X82053484Y-43338916D01*
X82053288Y-43485334D01*
X82053227Y-43650116D01*
X82053243Y-43834447D01*
X82053280Y-44039513D01*
X82053289Y-44162133D01*
X82053265Y-44379082D01*
X82053231Y-44574642D01*
X82053243Y-44749999D01*
X82053358Y-44906341D01*
X82053630Y-45044857D01*
X82054118Y-45166734D01*
X82054876Y-45273160D01*
X82055962Y-45365322D01*
X82057431Y-45444409D01*
X82059340Y-45511608D01*
X82061744Y-45568107D01*
X82064701Y-45615093D01*
X82068266Y-45653755D01*
X82072495Y-45685280D01*
X82077446Y-45710855D01*
X82083173Y-45731670D01*
X82089733Y-45748911D01*
X82097183Y-45763765D01*
X82105579Y-45777422D01*
X82114976Y-45791069D01*
X82125432Y-45805893D01*
X82131523Y-45814783D01*
X82170296Y-45872400D01*
X81638732Y-45872400D01*
X81515483Y-45872365D01*
X81412987Y-45872215D01*
X81329420Y-45871878D01*
X81262956Y-45871286D01*
X81211771Y-45870367D01*
X81174041Y-45869051D01*
X81147940Y-45867269D01*
X81131644Y-45864951D01*
X81123328Y-45862026D01*
X81121168Y-45858424D01*
X81123339Y-45854075D01*
X81124535Y-45852645D01*
X81149685Y-45815573D01*
X81175583Y-45762772D01*
X81199192Y-45700770D01*
X81207461Y-45674357D01*
X81212078Y-45656416D01*
X81215979Y-45635355D01*
X81219248Y-45609089D01*
X81221966Y-45575532D01*
X81224215Y-45532599D01*
X81226077Y-45478204D01*
X81227636Y-45410262D01*
X81228972Y-45326688D01*
X81230169Y-45225395D01*
X81231308Y-45104300D01*
X81231685Y-45059600D01*
X81232702Y-44934449D01*
X81233460Y-44830082D01*
X81233903Y-44744707D01*
X81233970Y-44676533D01*
X81233605Y-44623765D01*
X81232748Y-44584614D01*
X81231341Y-44557285D01*
X81229325Y-44539986D01*
X81226643Y-44530926D01*
X81223236Y-44528312D01*
X81219044Y-44530351D01*
X81214571Y-44534667D01*
X81204216Y-44547602D01*
X81182158Y-44576676D01*
X81149957Y-44619759D01*
X81109174Y-44674718D01*
X81061370Y-44739423D01*
X81008105Y-44811742D01*
X80950940Y-44889544D01*
X80891437Y-44970698D01*
X80831155Y-45053072D01*
X80771655Y-45134536D01*
X80714498Y-45212957D01*
X80661245Y-45286204D01*
X80613457Y-45352147D01*
X80572693Y-45408654D01*
X80540516Y-45453593D01*
X80518485Y-45484834D01*
X80513917Y-45491466D01*
X80490996Y-45528369D01*
X80464188Y-45576359D01*
X80438789Y-45625897D01*
X80435568Y-45632577D01*
X80413890Y-45680772D01*
X80401304Y-45718334D01*
X80395574Y-45754160D01*
X80394456Y-45796200D01*
X80395090Y-45872400D01*
X79240651Y-45872400D01*
X79331815Y-45778669D01*
X79378612Y-45728775D01*
X79428899Y-45672295D01*
X79474944Y-45618026D01*
X79495369Y-45592673D01*
X79525807Y-45553128D01*
X79565862Y-45499916D01*
X79614361Y-45434667D01*
X79670135Y-45359011D01*
X79732011Y-45274577D01*
X79798819Y-45182994D01*
X79869387Y-45085892D01*
X79942545Y-44984901D01*
X80017121Y-44881650D01*
X80091944Y-44777768D01*
X80165843Y-44674885D01*
X80237646Y-44574631D01*
X80306184Y-44478636D01*
X80370284Y-44388527D01*
X80428775Y-44305936D01*
X80480486Y-44232492D01*
X80524247Y-44169824D01*
X80558885Y-44119561D01*
X80583230Y-44083334D01*
X80596111Y-44062771D01*
X80597869Y-44058668D01*
X80589910Y-44047342D01*
X80569115Y-44020162D01*
X80536847Y-43978829D01*
X80494470Y-43925044D01*
X80443347Y-43860506D01*
X80384841Y-43786918D01*
X80320314Y-43705978D01*
X80251131Y-43619388D01*
X80178653Y-43528848D01*
X80104246Y-43436060D01*
X80044517Y-43361702D01*
X79033511Y-43361702D01*
X79027602Y-43374659D01*
X79013272Y-43396908D01*
X79012225Y-43398391D01*
X78993438Y-43428544D01*
X78973791Y-43465375D01*
X78969892Y-43473511D01*
X78966356Y-43481940D01*
X78963230Y-43492059D01*
X78960486Y-43505260D01*
X78958092Y-43522938D01*
X78956019Y-43546484D01*
X78954235Y-43577293D01*
X78952712Y-43616757D01*
X78951419Y-43666269D01*
X78950326Y-43727223D01*
X78949403Y-43801011D01*
X78948619Y-43889028D01*
X78947945Y-43992665D01*
X78947350Y-44113316D01*
X78946805Y-44252374D01*
X78946279Y-44411232D01*
X78945745Y-44590089D01*
X78945206Y-44775207D01*
X78944772Y-44939145D01*
X78944509Y-45083303D01*
X78944484Y-45209079D01*
X78944765Y-45317871D01*
X78945419Y-45411077D01*
X78946514Y-45490097D01*
X78948118Y-45556328D01*
X78950297Y-45611170D01*
X78953119Y-45656021D01*
X78956651Y-45692278D01*
X78960961Y-45721341D01*
X78966117Y-45744609D01*
X78972185Y-45763479D01*
X78979233Y-45779351D01*
X78987329Y-45793622D01*
X78996540Y-45807691D01*
X79005040Y-45820158D01*
X79022176Y-45846452D01*
X79032322Y-45864037D01*
X79033511Y-45867257D01*
X79022604Y-45868334D01*
X78991411Y-45869335D01*
X78942223Y-45870235D01*
X78877333Y-45871010D01*
X78799030Y-45871637D01*
X78709607Y-45872091D01*
X78611356Y-45872349D01*
X78542445Y-45872400D01*
X78437452Y-45872180D01*
X78340610Y-45871548D01*
X78254107Y-45870549D01*
X78180132Y-45869227D01*
X78120874Y-45867626D01*
X78078520Y-45865791D01*
X78055260Y-45863765D01*
X78051378Y-45862493D01*
X78059076Y-45847591D01*
X78067074Y-45839560D01*
X78080246Y-45822434D01*
X78097485Y-45792183D01*
X78109407Y-45767622D01*
X78136045Y-45708711D01*
X78139120Y-44531845D01*
X78142195Y-43354978D01*
X78587853Y-43354978D01*
X78685670Y-43355142D01*
X78776064Y-43355611D01*
X78856630Y-43356347D01*
X78924962Y-43357316D01*
X78978656Y-43358480D01*
X79015305Y-43359803D01*
X79032504Y-43361249D01*
X79033511Y-43361702D01*
X80044517Y-43361702D01*
X80029270Y-43342722D01*
X79955090Y-43250537D01*
X79883069Y-43161204D01*
X79814569Y-43076424D01*
X79750955Y-42997898D01*
X79693588Y-42927326D01*
X79643833Y-42866409D01*
X79603052Y-42816847D01*
X79585888Y-42796178D01*
X79499596Y-42695516D01*
X79422997Y-42612259D01*
X79354183Y-42544438D01*
X79291248Y-42490089D01*
X79281867Y-42482722D01*
X79242356Y-42452117D01*
X80374116Y-42451867D01*
X80368827Y-42499844D01*
X80372130Y-42557188D01*
X80393661Y-42625463D01*
X80433635Y-42705212D01*
X80478943Y-42777495D01*
X80495161Y-42800140D01*
X80523214Y-42837696D01*
X80561430Y-42888021D01*
X80608137Y-42948973D01*
X80661661Y-43018411D01*
X80720331Y-43094194D01*
X80782475Y-43174180D01*
X80846421Y-43256228D01*
X80910495Y-43338196D01*
X80973027Y-43417943D01*
X81032343Y-43493327D01*
X81086771Y-43562207D01*
X81134639Y-43622442D01*
X81174275Y-43671889D01*
X81204006Y-43708408D01*
X81222161Y-43729858D01*
X81225220Y-43733156D01*
X81228079Y-43725149D01*
X81230293Y-43694855D01*
X81231857Y-43642556D01*
X81232767Y-43568531D01*
X81233020Y-43473063D01*
X81232613Y-43356434D01*
X81231704Y-43236445D01*
X81230382Y-43104333D01*
X81228857Y-42992594D01*
X81226881Y-42899025D01*
X81224206Y-42821419D01*
X81220582Y-42757574D01*
X81215761Y-42705283D01*
X81209494Y-42662344D01*
X81201532Y-42626551D01*
X81191627Y-42595700D01*
X81179531Y-42567586D01*
X81164993Y-42540005D01*
X81150311Y-42514966D01*
X81112314Y-42451867D01*
X82172197Y-42451867D01*
X82475034Y-42451867D01*
X82475001Y-42445617D01*
X82474195Y-42343544D01*
X82473170Y-42254633D01*
X82471900Y-42177941D01*
X82470360Y-42112527D01*
X82468524Y-42057449D01*
X82466367Y-42011765D01*
X82463863Y-41974534D01*
X82460987Y-41944813D01*
X82457713Y-41921662D01*
X82454015Y-41904139D01*
X82449869Y-41891301D01*
X82445247Y-41882208D01*
X82440126Y-41875918D01*
X82434478Y-41871488D01*
X82428279Y-41867978D01*
X82421504Y-41864445D01*
X82415508Y-41860876D01*
X82410275Y-41858300D01*
X82402099Y-41855972D01*
X82389886Y-41853878D01*
X82372541Y-41852007D01*
X82348969Y-41850347D01*
X82318077Y-41848884D01*
X82278768Y-41847608D01*
X82229950Y-41846504D01*
X82170527Y-41845561D01*
X82099404Y-41844767D01*
X82015488Y-41844109D01*
X81917683Y-41843575D01*
X81804894Y-41843153D01*
X81676029Y-41842829D01*
X81529991Y-41842592D01*
X81365686Y-41842430D01*
X81182020Y-41842330D01*
X80977897Y-41842280D01*
X80766753Y-41842267D01*
X79146400Y-41842267D01*
X79146400Y-41939054D01*
G36*
X75871571Y-42399071D02*
X75711430Y-42420245D01*
X75547490Y-42460385D01*
X75377687Y-42519889D01*
X75199957Y-42599154D01*
X75188690Y-42604699D01*
X75130995Y-42632725D01*
X75079448Y-42656802D01*
X75037809Y-42675249D01*
X75009838Y-42686386D01*
X75000267Y-42688933D01*
X74981050Y-42693941D01*
X74976439Y-42698147D01*
X74981542Y-42708580D01*
X74997582Y-42734868D01*
X75022712Y-42774257D01*
X75055086Y-42823991D01*
X75092857Y-42881315D01*
X75134178Y-42943476D01*
X75177202Y-43007718D01*
X75220083Y-43071285D01*
X75260974Y-43131425D01*
X75298029Y-43185380D01*
X75329400Y-43230397D01*
X75353241Y-43263721D01*
X75367706Y-43282597D01*
X75369691Y-43284787D01*
X75379809Y-43280138D01*
X75402150Y-43262962D01*
X75432720Y-43236440D01*
X75448464Y-43221964D01*
X75544953Y-43146682D01*
X75651664Y-43091241D01*
X75767168Y-43056141D01*
X75890038Y-43041880D01*
X75959439Y-43043051D01*
X76080577Y-43060212D01*
X76189795Y-43096094D01*
X76287418Y-43150959D01*
X76373772Y-43225070D01*
X76449185Y-43318688D01*
X76513982Y-43432076D01*
X76551399Y-43518667D01*
X76595252Y-43654366D01*
X76627572Y-43801850D01*
X76648443Y-43957314D01*
X76657949Y-44116956D01*
X76656173Y-44276973D01*
X76643197Y-44433561D01*
X76619106Y-44582918D01*
X76583982Y-44721240D01*
X76537908Y-44844724D01*
X76521627Y-44878978D01*
X76453380Y-44993064D01*
X76372921Y-45089557D01*
X76281430Y-45167670D01*
X76180089Y-45226617D01*
X76070080Y-45265612D01*
X75952585Y-45283868D01*
X75911117Y-45285211D01*
X75789559Y-45274290D01*
X75669122Y-45241474D01*
X75551334Y-45187439D01*
X75437723Y-45112865D01*
X75346315Y-45034539D01*
X75299785Y-44990008D01*
X75118517Y-45287271D01*
X75073420Y-45361433D01*
X75032181Y-45429646D01*
X74996265Y-45489459D01*
X74967134Y-45538420D01*
X74946250Y-45574079D01*
X74935076Y-45593984D01*
X74933625Y-45597079D01*
X74941854Y-45606718D01*
X74967433Y-45623999D01*
X75007127Y-45647283D01*
X75057703Y-45674934D01*
X75115926Y-45705315D01*
X75178563Y-45736790D01*
X75242379Y-45767722D01*
X75304140Y-45796473D01*
X75360612Y-45821408D01*
X75408562Y-45840889D01*
X75432014Y-45849318D01*
X75565779Y-45887133D01*
X75703673Y-45912136D01*
X75851378Y-45925140D01*
X75978167Y-45927468D01*
X76046122Y-45926373D01*
X76111723Y-45924275D01*
X76169153Y-45921434D01*
X76212597Y-45918106D01*
X76226702Y-45916422D01*
X76365716Y-45887587D01*
X76507243Y-45842468D01*
X76644725Y-45783750D01*
X76771606Y-45714120D01*
X76849111Y-45661441D01*
X76976519Y-45553239D01*
X77094822Y-45426671D01*
X77201828Y-45284866D01*
X77295348Y-45130951D01*
X77373190Y-44968053D01*
X77417044Y-44850756D01*
X77467292Y-44667128D01*
X77500791Y-44472581D01*
X77517551Y-44271325D01*
X77517584Y-44067568D01*
X77500899Y-43865521D01*
X77467507Y-43669392D01*
X77417420Y-43483391D01*
X77413603Y-43471803D01*
X77350719Y-43309750D01*
X77273972Y-43161832D01*
X77180758Y-43023865D01*
X77068473Y-42891661D01*
X77024608Y-42846399D01*
X76888466Y-42722457D01*
X76748509Y-42619915D01*
X76602589Y-42537656D01*
X76448558Y-42474564D01*
X76284268Y-42429523D01*
X76188711Y-42412033D01*
X76029977Y-42396466D01*
X75871571Y-42399071D01*
X75871571Y-42399071D01*
G37*
X75871571Y-42399071D02*
X75711430Y-42420245D01*
X75547490Y-42460385D01*
X75377687Y-42519889D01*
X75199957Y-42599154D01*
X75188690Y-42604699D01*
X75130995Y-42632725D01*
X75079448Y-42656802D01*
X75037809Y-42675249D01*
X75009838Y-42686386D01*
X75000267Y-42688933D01*
X74981050Y-42693941D01*
X74976439Y-42698147D01*
X74981542Y-42708580D01*
X74997582Y-42734868D01*
X75022712Y-42774257D01*
X75055086Y-42823991D01*
X75092857Y-42881315D01*
X75134178Y-42943476D01*
X75177202Y-43007718D01*
X75220083Y-43071285D01*
X75260974Y-43131425D01*
X75298029Y-43185380D01*
X75329400Y-43230397D01*
X75353241Y-43263721D01*
X75367706Y-43282597D01*
X75369691Y-43284787D01*
X75379809Y-43280138D01*
X75402150Y-43262962D01*
X75432720Y-43236440D01*
X75448464Y-43221964D01*
X75544953Y-43146682D01*
X75651664Y-43091241D01*
X75767168Y-43056141D01*
X75890038Y-43041880D01*
X75959439Y-43043051D01*
X76080577Y-43060212D01*
X76189795Y-43096094D01*
X76287418Y-43150959D01*
X76373772Y-43225070D01*
X76449185Y-43318688D01*
X76513982Y-43432076D01*
X76551399Y-43518667D01*
X76595252Y-43654366D01*
X76627572Y-43801850D01*
X76648443Y-43957314D01*
X76657949Y-44116956D01*
X76656173Y-44276973D01*
X76643197Y-44433561D01*
X76619106Y-44582918D01*
X76583982Y-44721240D01*
X76537908Y-44844724D01*
X76521627Y-44878978D01*
X76453380Y-44993064D01*
X76372921Y-45089557D01*
X76281430Y-45167670D01*
X76180089Y-45226617D01*
X76070080Y-45265612D01*
X75952585Y-45283868D01*
X75911117Y-45285211D01*
X75789559Y-45274290D01*
X75669122Y-45241474D01*
X75551334Y-45187439D01*
X75437723Y-45112865D01*
X75346315Y-45034539D01*
X75299785Y-44990008D01*
X75118517Y-45287271D01*
X75073420Y-45361433D01*
X75032181Y-45429646D01*
X74996265Y-45489459D01*
X74967134Y-45538420D01*
X74946250Y-45574079D01*
X74935076Y-45593984D01*
X74933625Y-45597079D01*
X74941854Y-45606718D01*
X74967433Y-45623999D01*
X75007127Y-45647283D01*
X75057703Y-45674934D01*
X75115926Y-45705315D01*
X75178563Y-45736790D01*
X75242379Y-45767722D01*
X75304140Y-45796473D01*
X75360612Y-45821408D01*
X75408562Y-45840889D01*
X75432014Y-45849318D01*
X75565779Y-45887133D01*
X75703673Y-45912136D01*
X75851378Y-45925140D01*
X75978167Y-45927468D01*
X76046122Y-45926373D01*
X76111723Y-45924275D01*
X76169153Y-45921434D01*
X76212597Y-45918106D01*
X76226702Y-45916422D01*
X76365716Y-45887587D01*
X76507243Y-45842468D01*
X76644725Y-45783750D01*
X76771606Y-45714120D01*
X76849111Y-45661441D01*
X76976519Y-45553239D01*
X77094822Y-45426671D01*
X77201828Y-45284866D01*
X77295348Y-45130951D01*
X77373190Y-44968053D01*
X77417044Y-44850756D01*
X77467292Y-44667128D01*
X77500791Y-44472581D01*
X77517551Y-44271325D01*
X77517584Y-44067568D01*
X77500899Y-43865521D01*
X77467507Y-43669392D01*
X77417420Y-43483391D01*
X77413603Y-43471803D01*
X77350719Y-43309750D01*
X77273972Y-43161832D01*
X77180758Y-43023865D01*
X77068473Y-42891661D01*
X77024608Y-42846399D01*
X76888466Y-42722457D01*
X76748509Y-42619915D01*
X76602589Y-42537656D01*
X76448558Y-42474564D01*
X76284268Y-42429523D01*
X76188711Y-42412033D01*
X76029977Y-42396466D01*
X75871571Y-42399071D01*
G36*
X73526426Y-43316552D02*
X73374508Y-43336567D01*
X73239244Y-43370202D01*
X73119761Y-43417725D01*
X73015185Y-43479405D01*
X72937576Y-43542965D01*
X72868735Y-43617099D01*
X72814994Y-43696871D01*
X72772090Y-43789091D01*
X72756616Y-43832161D01*
X72743756Y-43871142D01*
X72732554Y-43907289D01*
X72722880Y-43942434D01*
X72714604Y-43978410D01*
X72707597Y-44017050D01*
X72701728Y-44060185D01*
X72696869Y-44109649D01*
X72692890Y-44167273D01*
X72689660Y-44234891D01*
X72687051Y-44314334D01*
X72684933Y-44407436D01*
X72683176Y-44516027D01*
X72681651Y-44641942D01*
X72680228Y-44787012D01*
X72678975Y-44929778D01*
X72677649Y-45085968D01*
X72676444Y-45221239D01*
X72675234Y-45337246D01*
X72673894Y-45435645D01*
X72672300Y-45518093D01*
X72670325Y-45586246D01*
X72667844Y-45641760D01*
X72664731Y-45686292D01*
X72660862Y-45721498D01*
X72656111Y-45749034D01*
X72650352Y-45770556D01*
X72643461Y-45787722D01*
X72635311Y-45802186D01*
X72625777Y-45815606D01*
X72614734Y-45829638D01*
X72610434Y-45835071D01*
X72594614Y-45857910D01*
X72587578Y-45873463D01*
X72587556Y-45873922D01*
X72598433Y-45876121D01*
X72629418Y-45878147D01*
X72678043Y-45879942D01*
X72741837Y-45881451D01*
X72818331Y-45882616D01*
X72905056Y-45883380D01*
X72999543Y-45883686D01*
X73010450Y-45883689D01*
X73433343Y-45883689D01*
X73436605Y-45787622D01*
X73439867Y-45691556D01*
X73501956Y-45742543D01*
X73599286Y-45810057D01*
X73709187Y-45864749D01*
X73795651Y-45894978D01*
X73864722Y-45909666D01*
X73948075Y-45919659D01*
X74037841Y-45924646D01*
X74126155Y-45924313D01*
X74205149Y-45918351D01*
X74241378Y-45912638D01*
X74381397Y-45874776D01*
X74507822Y-45819932D01*
X74619740Y-45748924D01*
X74716238Y-45662568D01*
X74796400Y-45561679D01*
X74859313Y-45447076D01*
X74903688Y-45320984D01*
X74916022Y-45264401D01*
X74923632Y-45202202D01*
X74927261Y-45127363D01*
X74927755Y-45093467D01*
X74927690Y-45090282D01*
X74167752Y-45090282D01*
X74158459Y-45165333D01*
X74130272Y-45229160D01*
X74081803Y-45284798D01*
X74076746Y-45289211D01*
X74028452Y-45324037D01*
X73976743Y-45346620D01*
X73916011Y-45358540D01*
X73840648Y-45361383D01*
X73822541Y-45360978D01*
X73768722Y-45358325D01*
X73728692Y-45352909D01*
X73693676Y-45342745D01*
X73654897Y-45325850D01*
X73644255Y-45320672D01*
X73583604Y-45284844D01*
X73536785Y-45242212D01*
X73524048Y-45226973D01*
X73479378Y-45170462D01*
X73479378Y-44974586D01*
X73479914Y-44895939D01*
X73481604Y-44837988D01*
X73484572Y-44798875D01*
X73488943Y-44776741D01*
X73493028Y-44770274D01*
X73508953Y-44767111D01*
X73542736Y-44764488D01*
X73589660Y-44762655D01*
X73645007Y-44761857D01*
X73653894Y-44761842D01*
X73774670Y-44767096D01*
X73877340Y-44783263D01*
X73963894Y-44810961D01*
X74036319Y-44850808D01*
X74091249Y-44897758D01*
X74135796Y-44955645D01*
X74160520Y-45018693D01*
X74167752Y-45090282D01*
X74927690Y-45090282D01*
X74925822Y-44999712D01*
X74917478Y-44920812D01*
X74901232Y-44849590D01*
X74875595Y-44778864D01*
X74851599Y-44726493D01*
X74792980Y-44631196D01*
X74714883Y-44543170D01*
X74619685Y-44464017D01*
X74509762Y-44395340D01*
X74387490Y-44338741D01*
X74255245Y-44295821D01*
X74190578Y-44280882D01*
X74054396Y-44258777D01*
X73905951Y-44244194D01*
X73754495Y-44237813D01*
X73627936Y-44239445D01*
X73466050Y-44246224D01*
X73473470Y-44187245D01*
X73492762Y-44088092D01*
X73523896Y-44007372D01*
X73567731Y-43944466D01*
X73625129Y-43898756D01*
X73696952Y-43869622D01*
X73784059Y-43856447D01*
X73887314Y-43858611D01*
X73925289Y-43862612D01*
X74066480Y-43887780D01*
X74203293Y-43928814D01*
X74297822Y-43966815D01*
X74342982Y-43986190D01*
X74381415Y-44001760D01*
X74407766Y-44011405D01*
X74415454Y-44013452D01*
X74425198Y-44004374D01*
X74441917Y-43975405D01*
X74465768Y-43926217D01*
X74496907Y-43856484D01*
X74535493Y-43765879D01*
X74542090Y-43750089D01*
X74572147Y-43677772D01*
X74599126Y-43612425D01*
X74621864Y-43556906D01*
X74639194Y-43514072D01*
X74649952Y-43486781D01*
X74653059Y-43477942D01*
X74643060Y-43473187D01*
X74616783Y-43467910D01*
X74588511Y-43464231D01*
X74558354Y-43459474D01*
X74510567Y-43450028D01*
X74449388Y-43436820D01*
X74379054Y-43420776D01*
X74303806Y-43402820D01*
X74275245Y-43395797D01*
X74170184Y-43370209D01*
X74082520Y-43350147D01*
X74007932Y-43334969D01*
X73942097Y-43324035D01*
X73880693Y-43316704D01*
X73819398Y-43312335D01*
X73753890Y-43310287D01*
X73695872Y-43309889D01*
X73526426Y-43316552D01*
X73526426Y-43316552D01*
G37*
X73526426Y-43316552D02*
X73374508Y-43336567D01*
X73239244Y-43370202D01*
X73119761Y-43417725D01*
X73015185Y-43479405D01*
X72937576Y-43542965D01*
X72868735Y-43617099D01*
X72814994Y-43696871D01*
X72772090Y-43789091D01*
X72756616Y-43832161D01*
X72743756Y-43871142D01*
X72732554Y-43907289D01*
X72722880Y-43942434D01*
X72714604Y-43978410D01*
X72707597Y-44017050D01*
X72701728Y-44060185D01*
X72696869Y-44109649D01*
X72692890Y-44167273D01*
X72689660Y-44234891D01*
X72687051Y-44314334D01*
X72684933Y-44407436D01*
X72683176Y-44516027D01*
X72681651Y-44641942D01*
X72680228Y-44787012D01*
X72678975Y-44929778D01*
X72677649Y-45085968D01*
X72676444Y-45221239D01*
X72675234Y-45337246D01*
X72673894Y-45435645D01*
X72672300Y-45518093D01*
X72670325Y-45586246D01*
X72667844Y-45641760D01*
X72664731Y-45686292D01*
X72660862Y-45721498D01*
X72656111Y-45749034D01*
X72650352Y-45770556D01*
X72643461Y-45787722D01*
X72635311Y-45802186D01*
X72625777Y-45815606D01*
X72614734Y-45829638D01*
X72610434Y-45835071D01*
X72594614Y-45857910D01*
X72587578Y-45873463D01*
X72587556Y-45873922D01*
X72598433Y-45876121D01*
X72629418Y-45878147D01*
X72678043Y-45879942D01*
X72741837Y-45881451D01*
X72818331Y-45882616D01*
X72905056Y-45883380D01*
X72999543Y-45883686D01*
X73010450Y-45883689D01*
X73433343Y-45883689D01*
X73436605Y-45787622D01*
X73439867Y-45691556D01*
X73501956Y-45742543D01*
X73599286Y-45810057D01*
X73709187Y-45864749D01*
X73795651Y-45894978D01*
X73864722Y-45909666D01*
X73948075Y-45919659D01*
X74037841Y-45924646D01*
X74126155Y-45924313D01*
X74205149Y-45918351D01*
X74241378Y-45912638D01*
X74381397Y-45874776D01*
X74507822Y-45819932D01*
X74619740Y-45748924D01*
X74716238Y-45662568D01*
X74796400Y-45561679D01*
X74859313Y-45447076D01*
X74903688Y-45320984D01*
X74916022Y-45264401D01*
X74923632Y-45202202D01*
X74927261Y-45127363D01*
X74927755Y-45093467D01*
X74927690Y-45090282D01*
X74167752Y-45090282D01*
X74158459Y-45165333D01*
X74130272Y-45229160D01*
X74081803Y-45284798D01*
X74076746Y-45289211D01*
X74028452Y-45324037D01*
X73976743Y-45346620D01*
X73916011Y-45358540D01*
X73840648Y-45361383D01*
X73822541Y-45360978D01*
X73768722Y-45358325D01*
X73728692Y-45352909D01*
X73693676Y-45342745D01*
X73654897Y-45325850D01*
X73644255Y-45320672D01*
X73583604Y-45284844D01*
X73536785Y-45242212D01*
X73524048Y-45226973D01*
X73479378Y-45170462D01*
X73479378Y-44974586D01*
X73479914Y-44895939D01*
X73481604Y-44837988D01*
X73484572Y-44798875D01*
X73488943Y-44776741D01*
X73493028Y-44770274D01*
X73508953Y-44767111D01*
X73542736Y-44764488D01*
X73589660Y-44762655D01*
X73645007Y-44761857D01*
X73653894Y-44761842D01*
X73774670Y-44767096D01*
X73877340Y-44783263D01*
X73963894Y-44810961D01*
X74036319Y-44850808D01*
X74091249Y-44897758D01*
X74135796Y-44955645D01*
X74160520Y-45018693D01*
X74167752Y-45090282D01*
X74927690Y-45090282D01*
X74925822Y-44999712D01*
X74917478Y-44920812D01*
X74901232Y-44849590D01*
X74875595Y-44778864D01*
X74851599Y-44726493D01*
X74792980Y-44631196D01*
X74714883Y-44543170D01*
X74619685Y-44464017D01*
X74509762Y-44395340D01*
X74387490Y-44338741D01*
X74255245Y-44295821D01*
X74190578Y-44280882D01*
X74054396Y-44258777D01*
X73905951Y-44244194D01*
X73754495Y-44237813D01*
X73627936Y-44239445D01*
X73466050Y-44246224D01*
X73473470Y-44187245D01*
X73492762Y-44088092D01*
X73523896Y-44007372D01*
X73567731Y-43944466D01*
X73625129Y-43898756D01*
X73696952Y-43869622D01*
X73784059Y-43856447D01*
X73887314Y-43858611D01*
X73925289Y-43862612D01*
X74066480Y-43887780D01*
X74203293Y-43928814D01*
X74297822Y-43966815D01*
X74342982Y-43986190D01*
X74381415Y-44001760D01*
X74407766Y-44011405D01*
X74415454Y-44013452D01*
X74425198Y-44004374D01*
X74441917Y-43975405D01*
X74465768Y-43926217D01*
X74496907Y-43856484D01*
X74535493Y-43765879D01*
X74542090Y-43750089D01*
X74572147Y-43677772D01*
X74599126Y-43612425D01*
X74621864Y-43556906D01*
X74639194Y-43514072D01*
X74649952Y-43486781D01*
X74653059Y-43477942D01*
X74643060Y-43473187D01*
X74616783Y-43467910D01*
X74588511Y-43464231D01*
X74558354Y-43459474D01*
X74510567Y-43450028D01*
X74449388Y-43436820D01*
X74379054Y-43420776D01*
X74303806Y-43402820D01*
X74275245Y-43395797D01*
X74170184Y-43370209D01*
X74082520Y-43350147D01*
X74007932Y-43334969D01*
X73942097Y-43324035D01*
X73880693Y-43316704D01*
X73819398Y-43312335D01*
X73753890Y-43310287D01*
X73695872Y-43309889D01*
X73526426Y-43316552D01*
G36*
X70013493Y-43922245D02*
X70013474Y-44156662D01*
X70013448Y-44369603D01*
X70013375Y-44562168D01*
X70013218Y-44735459D01*
X70012936Y-44890576D01*
X70012491Y-45028620D01*
X70011844Y-45150692D01*
X70010955Y-45257894D01*
X70009787Y-45351326D01*
X70008299Y-45432090D01*
X70006454Y-45501286D01*
X70004211Y-45560015D01*
X70001531Y-45609379D01*
X69998377Y-45650478D01*
X69994708Y-45684413D01*
X69990487Y-45712286D01*
X69985673Y-45735198D01*
X69980227Y-45754249D01*
X69974112Y-45770540D01*
X69967288Y-45785173D01*
X69959715Y-45799249D01*
X69951355Y-45813868D01*
X69946161Y-45822974D01*
X69911896Y-45883689D01*
X70770045Y-45883689D01*
X70770045Y-45787733D01*
X70770776Y-45744370D01*
X70772728Y-45711205D01*
X70775537Y-45693424D01*
X70776779Y-45691778D01*
X70788201Y-45698662D01*
X70810916Y-45716505D01*
X70833615Y-45735879D01*
X70888200Y-45776614D01*
X70957679Y-45817617D01*
X71034730Y-45855123D01*
X71112035Y-45885364D01*
X71142887Y-45895012D01*
X71211384Y-45909578D01*
X71294236Y-45919539D01*
X71383629Y-45924583D01*
X71471752Y-45924396D01*
X71550793Y-45918666D01*
X71588489Y-45912858D01*
X71726586Y-45874797D01*
X71853887Y-45817073D01*
X71969708Y-45740211D01*
X72073363Y-45644739D01*
X72164167Y-45531179D01*
X72230969Y-45420381D01*
X72285836Y-45303625D01*
X72327837Y-45184276D01*
X72357833Y-45058283D01*
X72376689Y-44921594D01*
X72385268Y-44770158D01*
X72385994Y-44692711D01*
X72383900Y-44635934D01*
X71554783Y-44635934D01*
X71554576Y-44729002D01*
X71551663Y-44816692D01*
X71546000Y-44893772D01*
X71537545Y-44955009D01*
X71534962Y-44967350D01*
X71503160Y-45074633D01*
X71461502Y-45161658D01*
X71409637Y-45228642D01*
X71347219Y-45275805D01*
X71273900Y-45303365D01*
X71189331Y-45311541D01*
X71093165Y-45300551D01*
X71029689Y-45284829D01*
X70980546Y-45266639D01*
X70926417Y-45240791D01*
X70885756Y-45217089D01*
X70815200Y-45170721D01*
X70815200Y-44020530D01*
X70882608Y-43976962D01*
X70961133Y-43936040D01*
X71045319Y-43909389D01*
X71130443Y-43897465D01*
X71211784Y-43900722D01*
X71284620Y-43919615D01*
X71316574Y-43935184D01*
X71374499Y-43978181D01*
X71423456Y-44034953D01*
X71464610Y-44107575D01*
X71499126Y-44198121D01*
X71528167Y-44308666D01*
X71529448Y-44314533D01*
X71539619Y-44376788D01*
X71547261Y-44454594D01*
X71552330Y-44542720D01*
X71554783Y-44635934D01*
X72383900Y-44635934D01*
X72378143Y-44479895D01*
X72356198Y-44284059D01*
X72320214Y-44105332D01*
X72270241Y-43943845D01*
X72206332Y-43799726D01*
X72128538Y-43673106D01*
X72036911Y-43564115D01*
X71931503Y-43472883D01*
X71886338Y-43441932D01*
X71785389Y-43385785D01*
X71682099Y-43346174D01*
X71572011Y-43322014D01*
X71450670Y-43312219D01*
X71358164Y-43313265D01*
X71228510Y-43324231D01*
X71115916Y-43346046D01*
X71017125Y-43379714D01*
X70928879Y-43426236D01*
X70880014Y-43460448D01*
X70850647Y-43482362D01*
X70828957Y-43497333D01*
X70820747Y-43501733D01*
X70819132Y-43490904D01*
X70817841Y-43460251D01*
X70816862Y-43412526D01*
X70816183Y-43350479D01*
X70815790Y-43276862D01*
X70815670Y-43194427D01*
X70815812Y-43105925D01*
X70816203Y-43014107D01*
X70816829Y-42921724D01*
X70817680Y-42831528D01*
X70818740Y-42746271D01*
X70819999Y-42668703D01*
X70821444Y-42601576D01*
X70823062Y-42547641D01*
X70824839Y-42509650D01*
X70825331Y-42502667D01*
X70832908Y-42432251D01*
X70844469Y-42377102D01*
X70862208Y-42329981D01*
X70888318Y-42283647D01*
X70894585Y-42274067D01*
X70919017Y-42237378D01*
X70013689Y-42237378D01*
X70013493Y-43922245D01*
X70013493Y-43922245D01*
G37*
X70013493Y-43922245D02*
X70013474Y-44156662D01*
X70013448Y-44369603D01*
X70013375Y-44562168D01*
X70013218Y-44735459D01*
X70012936Y-44890576D01*
X70012491Y-45028620D01*
X70011844Y-45150692D01*
X70010955Y-45257894D01*
X70009787Y-45351326D01*
X70008299Y-45432090D01*
X70006454Y-45501286D01*
X70004211Y-45560015D01*
X70001531Y-45609379D01*
X69998377Y-45650478D01*
X69994708Y-45684413D01*
X69990487Y-45712286D01*
X69985673Y-45735198D01*
X69980227Y-45754249D01*
X69974112Y-45770540D01*
X69967288Y-45785173D01*
X69959715Y-45799249D01*
X69951355Y-45813868D01*
X69946161Y-45822974D01*
X69911896Y-45883689D01*
X70770045Y-45883689D01*
X70770045Y-45787733D01*
X70770776Y-45744370D01*
X70772728Y-45711205D01*
X70775537Y-45693424D01*
X70776779Y-45691778D01*
X70788201Y-45698662D01*
X70810916Y-45716505D01*
X70833615Y-45735879D01*
X70888200Y-45776614D01*
X70957679Y-45817617D01*
X71034730Y-45855123D01*
X71112035Y-45885364D01*
X71142887Y-45895012D01*
X71211384Y-45909578D01*
X71294236Y-45919539D01*
X71383629Y-45924583D01*
X71471752Y-45924396D01*
X71550793Y-45918666D01*
X71588489Y-45912858D01*
X71726586Y-45874797D01*
X71853887Y-45817073D01*
X71969708Y-45740211D01*
X72073363Y-45644739D01*
X72164167Y-45531179D01*
X72230969Y-45420381D01*
X72285836Y-45303625D01*
X72327837Y-45184276D01*
X72357833Y-45058283D01*
X72376689Y-44921594D01*
X72385268Y-44770158D01*
X72385994Y-44692711D01*
X72383900Y-44635934D01*
X71554783Y-44635934D01*
X71554576Y-44729002D01*
X71551663Y-44816692D01*
X71546000Y-44893772D01*
X71537545Y-44955009D01*
X71534962Y-44967350D01*
X71503160Y-45074633D01*
X71461502Y-45161658D01*
X71409637Y-45228642D01*
X71347219Y-45275805D01*
X71273900Y-45303365D01*
X71189331Y-45311541D01*
X71093165Y-45300551D01*
X71029689Y-45284829D01*
X70980546Y-45266639D01*
X70926417Y-45240791D01*
X70885756Y-45217089D01*
X70815200Y-45170721D01*
X70815200Y-44020530D01*
X70882608Y-43976962D01*
X70961133Y-43936040D01*
X71045319Y-43909389D01*
X71130443Y-43897465D01*
X71211784Y-43900722D01*
X71284620Y-43919615D01*
X71316574Y-43935184D01*
X71374499Y-43978181D01*
X71423456Y-44034953D01*
X71464610Y-44107575D01*
X71499126Y-44198121D01*
X71528167Y-44308666D01*
X71529448Y-44314533D01*
X71539619Y-44376788D01*
X71547261Y-44454594D01*
X71552330Y-44542720D01*
X71554783Y-44635934D01*
X72383900Y-44635934D01*
X72378143Y-44479895D01*
X72356198Y-44284059D01*
X72320214Y-44105332D01*
X72270241Y-43943845D01*
X72206332Y-43799726D01*
X72128538Y-43673106D01*
X72036911Y-43564115D01*
X71931503Y-43472883D01*
X71886338Y-43441932D01*
X71785389Y-43385785D01*
X71682099Y-43346174D01*
X71572011Y-43322014D01*
X71450670Y-43312219D01*
X71358164Y-43313265D01*
X71228510Y-43324231D01*
X71115916Y-43346046D01*
X71017125Y-43379714D01*
X70928879Y-43426236D01*
X70880014Y-43460448D01*
X70850647Y-43482362D01*
X70828957Y-43497333D01*
X70820747Y-43501733D01*
X70819132Y-43490904D01*
X70817841Y-43460251D01*
X70816862Y-43412526D01*
X70816183Y-43350479D01*
X70815790Y-43276862D01*
X70815670Y-43194427D01*
X70815812Y-43105925D01*
X70816203Y-43014107D01*
X70816829Y-42921724D01*
X70817680Y-42831528D01*
X70818740Y-42746271D01*
X70819999Y-42668703D01*
X70821444Y-42601576D01*
X70823062Y-42547641D01*
X70824839Y-42509650D01*
X70825331Y-42502667D01*
X70832908Y-42432251D01*
X70844469Y-42377102D01*
X70862208Y-42329981D01*
X70888318Y-42283647D01*
X70894585Y-42274067D01*
X70919017Y-42237378D01*
X70013689Y-42237378D01*
X70013493Y-43922245D01*
G36*
X78473043Y-41476571D02*
X78376768Y-41500809D01*
X78290184Y-41543641D01*
X78215373Y-41603419D01*
X78154418Y-41678494D01*
X78109399Y-41767220D01*
X78083136Y-41863530D01*
X78077286Y-41960795D01*
X78092140Y-42054654D01*
X78125840Y-42142511D01*
X78176528Y-42221770D01*
X78242345Y-42289836D01*
X78321434Y-42344112D01*
X78411934Y-42382002D01*
X78463200Y-42394426D01*
X78507698Y-42401947D01*
X78541999Y-42404919D01*
X78574960Y-42403094D01*
X78615434Y-42396225D01*
X78648531Y-42389250D01*
X78741947Y-42357741D01*
X78825619Y-42306617D01*
X78897665Y-42237429D01*
X78956200Y-42151728D01*
X78970148Y-42124489D01*
X78986586Y-42088122D01*
X78996894Y-42057582D01*
X79002460Y-42025450D01*
X79004669Y-41984307D01*
X79004948Y-41938222D01*
X79000861Y-41853865D01*
X78987446Y-41784586D01*
X78962256Y-41723961D01*
X78922846Y-41665567D01*
X78884298Y-41621302D01*
X78812406Y-41555484D01*
X78737313Y-41510053D01*
X78654562Y-41482850D01*
X78576928Y-41472576D01*
X78473043Y-41476571D01*
X78473043Y-41476571D01*
G37*
X78473043Y-41476571D02*
X78376768Y-41500809D01*
X78290184Y-41543641D01*
X78215373Y-41603419D01*
X78154418Y-41678494D01*
X78109399Y-41767220D01*
X78083136Y-41863530D01*
X78077286Y-41960795D01*
X78092140Y-42054654D01*
X78125840Y-42142511D01*
X78176528Y-42221770D01*
X78242345Y-42289836D01*
X78321434Y-42344112D01*
X78411934Y-42382002D01*
X78463200Y-42394426D01*
X78507698Y-42401947D01*
X78541999Y-42404919D01*
X78574960Y-42403094D01*
X78615434Y-42396225D01*
X78648531Y-42389250D01*
X78741947Y-42357741D01*
X78825619Y-42306617D01*
X78897665Y-42237429D01*
X78956200Y-42151728D01*
X78970148Y-42124489D01*
X78986586Y-42088122D01*
X78996894Y-42057582D01*
X79002460Y-42025450D01*
X79004669Y-41984307D01*
X79004948Y-41938222D01*
X79000861Y-41853865D01*
X78987446Y-41784586D01*
X78962256Y-41723961D01*
X78922846Y-41665567D01*
X78884298Y-41621302D01*
X78812406Y-41555484D01*
X78737313Y-41510053D01*
X78654562Y-41482850D01*
X78576928Y-41472576D01*
X78473043Y-41476571D01*
D13*
X84436856Y-48731714D02*
X84436856Y-47969714D01*
X84110285Y-48695429D02*
X84001428Y-48731714D01*
X83819999Y-48731714D01*
X83747428Y-48695429D01*
X83711142Y-48659143D01*
X83674857Y-48586571D01*
X83674857Y-48514000D01*
X83711142Y-48441429D01*
X83747428Y-48405143D01*
X83819999Y-48368857D01*
X83965142Y-48332571D01*
X84037714Y-48296286D01*
X84073999Y-48260000D01*
X84110285Y-48187429D01*
X84110285Y-48114857D01*
X84073999Y-48042286D01*
X84037714Y-48006000D01*
X83965142Y-47969714D01*
X83783714Y-47969714D01*
X83674857Y-48006000D01*
X83348285Y-48731714D02*
X83348285Y-47969714D01*
X83058000Y-47969714D01*
X82985428Y-48006000D01*
X82949143Y-48042286D01*
X82912857Y-48114857D01*
X82912857Y-48223714D01*
X82949143Y-48296286D01*
X82985428Y-48332571D01*
X83058000Y-48368857D01*
X83348285Y-48368857D01*
X82767714Y-48804286D02*
X82187143Y-48804286D01*
X81606572Y-48731714D02*
X82042000Y-48731714D01*
X81824286Y-48731714D02*
X81824286Y-47969714D01*
X81896857Y-48078571D01*
X81969429Y-48151143D01*
X82042000Y-48187429D01*
X81134858Y-47969714D02*
X81062286Y-47969714D01*
X80989715Y-48006000D01*
X80953429Y-48042286D01*
X80917143Y-48114857D01*
X80880858Y-48260000D01*
X80880858Y-48441429D01*
X80917143Y-48586571D01*
X80953429Y-48659143D01*
X80989715Y-48695429D01*
X81062286Y-48731714D01*
X81134858Y-48731714D01*
X81207429Y-48695429D01*
X81243715Y-48659143D01*
X81280000Y-48586571D01*
X81316286Y-48441429D01*
X81316286Y-48260000D01*
X81280000Y-48114857D01*
X81243715Y-48042286D01*
X81207429Y-48006000D01*
X81134858Y-47969714D01*
X86831714Y-38608001D02*
X86069714Y-38608001D01*
X86795429Y-38934572D02*
X86831714Y-39043429D01*
X86831714Y-39224858D01*
X86795429Y-39297429D01*
X86759143Y-39333715D01*
X86686571Y-39370000D01*
X86614000Y-39370000D01*
X86541429Y-39333715D01*
X86505143Y-39297429D01*
X86468857Y-39224858D01*
X86432571Y-39079715D01*
X86396286Y-39007143D01*
X86360000Y-38970858D01*
X86287429Y-38934572D01*
X86214857Y-38934572D01*
X86142286Y-38970858D01*
X86106000Y-39007143D01*
X86069714Y-39079715D01*
X86069714Y-39261143D01*
X86106000Y-39370000D01*
X86831714Y-39696572D02*
X86069714Y-39696572D01*
X86069714Y-39986857D01*
X86106000Y-40059429D01*
X86142286Y-40095714D01*
X86214857Y-40132000D01*
X86323714Y-40132000D01*
X86396286Y-40095714D01*
X86432571Y-40059429D01*
X86468857Y-39986857D01*
X86468857Y-39696572D01*
X86904286Y-40277143D02*
X86904286Y-40857714D01*
X86069714Y-41365714D02*
X86069714Y-41220571D01*
X86106000Y-41148000D01*
X86142286Y-41111714D01*
X86251143Y-41039143D01*
X86396286Y-41002857D01*
X86686571Y-41002857D01*
X86759143Y-41039143D01*
X86795429Y-41075428D01*
X86831714Y-41148000D01*
X86831714Y-41293143D01*
X86795429Y-41365714D01*
X86759143Y-41402000D01*
X86686571Y-41438285D01*
X86505143Y-41438285D01*
X86432571Y-41402000D01*
X86396286Y-41365714D01*
X86360000Y-41293143D01*
X86360000Y-41148000D01*
X86396286Y-41075428D01*
X86432571Y-41039143D01*
X86505143Y-41002857D01*
M02*
