G04 #@! TF.FileFunction,Legend,Top*
%FSLAX46Y46*%
G04 Gerber Fmt 4.6, Leading zero omitted, Abs format (unit mm)*
G04 Created by KiCad (PCBNEW 4.0.7) date 2018 March 08, Thursday 11:57:54*
%MOMM*%
%LPD*%
G01*
G04 APERTURE LIST*
%ADD10C,0.100000*%
%ADD11C,0.127000*%
%ADD12C,0.150000*%
G04 APERTURE END LIST*
D10*
D11*
X65858571Y-41746714D02*
X66294000Y-41746714D01*
X66076286Y-42508714D02*
X66076286Y-41746714D01*
X66874571Y-42508714D02*
X66874571Y-42109571D01*
X66838285Y-42037000D01*
X66765714Y-42000714D01*
X66620571Y-42000714D01*
X66548000Y-42037000D01*
X66874571Y-42472429D02*
X66802000Y-42508714D01*
X66620571Y-42508714D01*
X66548000Y-42472429D01*
X66511714Y-42399857D01*
X66511714Y-42327286D01*
X66548000Y-42254714D01*
X66620571Y-42218429D01*
X66802000Y-42218429D01*
X66874571Y-42182143D01*
X67564000Y-42000714D02*
X67564000Y-42617571D01*
X67527714Y-42690143D01*
X67491429Y-42726429D01*
X67418857Y-42762714D01*
X67310000Y-42762714D01*
X67237429Y-42726429D01*
X67564000Y-42472429D02*
X67491429Y-42508714D01*
X67346286Y-42508714D01*
X67273714Y-42472429D01*
X67237429Y-42436143D01*
X67201143Y-42363571D01*
X67201143Y-42145857D01*
X67237429Y-42073286D01*
X67273714Y-42037000D01*
X67346286Y-42000714D01*
X67491429Y-42000714D01*
X67564000Y-42037000D01*
X67926858Y-42218429D02*
X68507429Y-42218429D01*
X69305715Y-42436143D02*
X69269429Y-42472429D01*
X69160572Y-42508714D01*
X69088001Y-42508714D01*
X68979144Y-42472429D01*
X68906572Y-42399857D01*
X68870287Y-42327286D01*
X68834001Y-42182143D01*
X68834001Y-42073286D01*
X68870287Y-41928143D01*
X68906572Y-41855571D01*
X68979144Y-41783000D01*
X69088001Y-41746714D01*
X69160572Y-41746714D01*
X69269429Y-41783000D01*
X69305715Y-41819286D01*
X69741144Y-42508714D02*
X69668572Y-42472429D01*
X69632287Y-42436143D01*
X69596001Y-42363571D01*
X69596001Y-42145857D01*
X69632287Y-42073286D01*
X69668572Y-42037000D01*
X69741144Y-42000714D01*
X69850001Y-42000714D01*
X69922572Y-42037000D01*
X69958858Y-42073286D01*
X69995144Y-42145857D01*
X69995144Y-42363571D01*
X69958858Y-42436143D01*
X69922572Y-42472429D01*
X69850001Y-42508714D01*
X69741144Y-42508714D01*
X70321716Y-42000714D02*
X70321716Y-42508714D01*
X70321716Y-42073286D02*
X70358001Y-42037000D01*
X70430573Y-42000714D01*
X70539430Y-42000714D01*
X70612001Y-42037000D01*
X70648287Y-42109571D01*
X70648287Y-42508714D01*
X71011145Y-42000714D02*
X71011145Y-42508714D01*
X71011145Y-42073286D02*
X71047430Y-42037000D01*
X71120002Y-42000714D01*
X71228859Y-42000714D01*
X71301430Y-42037000D01*
X71337716Y-42109571D01*
X71337716Y-42508714D01*
X71990859Y-42472429D02*
X71918288Y-42508714D01*
X71773145Y-42508714D01*
X71700574Y-42472429D01*
X71664288Y-42399857D01*
X71664288Y-42109571D01*
X71700574Y-42037000D01*
X71773145Y-42000714D01*
X71918288Y-42000714D01*
X71990859Y-42037000D01*
X72027145Y-42109571D01*
X72027145Y-42182143D01*
X71664288Y-42254714D01*
X72680288Y-42472429D02*
X72607717Y-42508714D01*
X72462574Y-42508714D01*
X72390002Y-42472429D01*
X72353717Y-42436143D01*
X72317431Y-42363571D01*
X72317431Y-42145857D01*
X72353717Y-42073286D01*
X72390002Y-42037000D01*
X72462574Y-42000714D01*
X72607717Y-42000714D01*
X72680288Y-42037000D01*
X72898002Y-42000714D02*
X73188288Y-42000714D01*
X73006860Y-41746714D02*
X73006860Y-42399857D01*
X73043145Y-42472429D01*
X73115717Y-42508714D01*
X73188288Y-42508714D01*
X74022860Y-42109571D02*
X74276860Y-42109571D01*
X74385717Y-42508714D02*
X74022860Y-42508714D01*
X74022860Y-41746714D01*
X74385717Y-41746714D01*
X75038860Y-42508714D02*
X75038860Y-41746714D01*
X75038860Y-42472429D02*
X74966289Y-42508714D01*
X74821146Y-42508714D01*
X74748574Y-42472429D01*
X74712289Y-42436143D01*
X74676003Y-42363571D01*
X74676003Y-42145857D01*
X74712289Y-42073286D01*
X74748574Y-42037000D01*
X74821146Y-42000714D01*
X74966289Y-42000714D01*
X75038860Y-42037000D01*
X75728289Y-42000714D02*
X75728289Y-42617571D01*
X75692003Y-42690143D01*
X75655718Y-42726429D01*
X75583146Y-42762714D01*
X75474289Y-42762714D01*
X75401718Y-42726429D01*
X75728289Y-42472429D02*
X75655718Y-42508714D01*
X75510575Y-42508714D01*
X75438003Y-42472429D01*
X75401718Y-42436143D01*
X75365432Y-42363571D01*
X75365432Y-42145857D01*
X75401718Y-42073286D01*
X75438003Y-42037000D01*
X75510575Y-42000714D01*
X75655718Y-42000714D01*
X75728289Y-42037000D01*
X76381432Y-42472429D02*
X76308861Y-42508714D01*
X76163718Y-42508714D01*
X76091147Y-42472429D01*
X76054861Y-42399857D01*
X76054861Y-42109571D01*
X76091147Y-42037000D01*
X76163718Y-42000714D01*
X76308861Y-42000714D01*
X76381432Y-42037000D01*
X76417718Y-42109571D01*
X76417718Y-42182143D01*
X76054861Y-42254714D01*
X77760289Y-42436143D02*
X77724003Y-42472429D01*
X77615146Y-42508714D01*
X77542575Y-42508714D01*
X77433718Y-42472429D01*
X77361146Y-42399857D01*
X77324861Y-42327286D01*
X77288575Y-42182143D01*
X77288575Y-42073286D01*
X77324861Y-41928143D01*
X77361146Y-41855571D01*
X77433718Y-41783000D01*
X77542575Y-41746714D01*
X77615146Y-41746714D01*
X77724003Y-41783000D01*
X77760289Y-41819286D01*
X78195718Y-42508714D02*
X78123146Y-42472429D01*
X78086861Y-42436143D01*
X78050575Y-42363571D01*
X78050575Y-42145857D01*
X78086861Y-42073286D01*
X78123146Y-42037000D01*
X78195718Y-42000714D01*
X78304575Y-42000714D01*
X78377146Y-42037000D01*
X78413432Y-42073286D01*
X78449718Y-42145857D01*
X78449718Y-42363571D01*
X78413432Y-42436143D01*
X78377146Y-42472429D01*
X78304575Y-42508714D01*
X78195718Y-42508714D01*
X78776290Y-42000714D02*
X78776290Y-42508714D01*
X78776290Y-42073286D02*
X78812575Y-42037000D01*
X78885147Y-42000714D01*
X78994004Y-42000714D01*
X79066575Y-42037000D01*
X79102861Y-42109571D01*
X79102861Y-42508714D01*
X79465719Y-42000714D02*
X79465719Y-42508714D01*
X79465719Y-42073286D02*
X79502004Y-42037000D01*
X79574576Y-42000714D01*
X79683433Y-42000714D01*
X79756004Y-42037000D01*
X79792290Y-42109571D01*
X79792290Y-42508714D01*
X80445433Y-42472429D02*
X80372862Y-42508714D01*
X80227719Y-42508714D01*
X80155148Y-42472429D01*
X80118862Y-42399857D01*
X80118862Y-42109571D01*
X80155148Y-42037000D01*
X80227719Y-42000714D01*
X80372862Y-42000714D01*
X80445433Y-42037000D01*
X80481719Y-42109571D01*
X80481719Y-42182143D01*
X80118862Y-42254714D01*
X81134862Y-42472429D02*
X81062291Y-42508714D01*
X80917148Y-42508714D01*
X80844576Y-42472429D01*
X80808291Y-42436143D01*
X80772005Y-42363571D01*
X80772005Y-42145857D01*
X80808291Y-42073286D01*
X80844576Y-42037000D01*
X80917148Y-42000714D01*
X81062291Y-42000714D01*
X81134862Y-42037000D01*
X81352576Y-42000714D02*
X81642862Y-42000714D01*
X81461434Y-41746714D02*
X81461434Y-42399857D01*
X81497719Y-42472429D01*
X81570291Y-42508714D01*
X81642862Y-42508714D01*
X82005720Y-42508714D02*
X81933148Y-42472429D01*
X81896863Y-42436143D01*
X81860577Y-42363571D01*
X81860577Y-42145857D01*
X81896863Y-42073286D01*
X81933148Y-42037000D01*
X82005720Y-42000714D01*
X82114577Y-42000714D01*
X82187148Y-42037000D01*
X82223434Y-42073286D01*
X82259720Y-42145857D01*
X82259720Y-42363571D01*
X82223434Y-42436143D01*
X82187148Y-42472429D01*
X82114577Y-42508714D01*
X82005720Y-42508714D01*
X82586292Y-42508714D02*
X82586292Y-42000714D01*
X82586292Y-42145857D02*
X82622577Y-42073286D01*
X82658863Y-42037000D01*
X82731434Y-42000714D01*
X82804006Y-42000714D01*
X65858571Y-43270714D02*
X66148857Y-43270714D01*
X65967429Y-43016714D02*
X65967429Y-43669857D01*
X66003714Y-43742429D01*
X66076286Y-43778714D01*
X66148857Y-43778714D01*
X66693143Y-43742429D02*
X66620572Y-43778714D01*
X66475429Y-43778714D01*
X66402858Y-43742429D01*
X66366572Y-43669857D01*
X66366572Y-43379571D01*
X66402858Y-43307000D01*
X66475429Y-43270714D01*
X66620572Y-43270714D01*
X66693143Y-43307000D01*
X66729429Y-43379571D01*
X66729429Y-43452143D01*
X66366572Y-43524714D01*
X67019715Y-43742429D02*
X67092286Y-43778714D01*
X67237429Y-43778714D01*
X67310001Y-43742429D01*
X67346286Y-43669857D01*
X67346286Y-43633571D01*
X67310001Y-43561000D01*
X67237429Y-43524714D01*
X67128572Y-43524714D01*
X67056001Y-43488429D01*
X67019715Y-43415857D01*
X67019715Y-43379571D01*
X67056001Y-43307000D01*
X67128572Y-43270714D01*
X67237429Y-43270714D01*
X67310001Y-43307000D01*
X67564000Y-43270714D02*
X67854286Y-43270714D01*
X67672858Y-43016714D02*
X67672858Y-43669857D01*
X67709143Y-43742429D01*
X67781715Y-43778714D01*
X67854286Y-43778714D01*
X68688858Y-43270714D02*
X68688858Y-44032714D01*
X68688858Y-43307000D02*
X68761429Y-43270714D01*
X68906572Y-43270714D01*
X68979143Y-43307000D01*
X69015429Y-43343286D01*
X69051715Y-43415857D01*
X69051715Y-43633571D01*
X69015429Y-43706143D01*
X68979143Y-43742429D01*
X68906572Y-43778714D01*
X68761429Y-43778714D01*
X68688858Y-43742429D01*
X69378287Y-43778714D02*
X69378287Y-43270714D01*
X69378287Y-43016714D02*
X69342001Y-43053000D01*
X69378287Y-43089286D01*
X69414572Y-43053000D01*
X69378287Y-43016714D01*
X69378287Y-43089286D01*
X70031429Y-43742429D02*
X69958858Y-43778714D01*
X69813715Y-43778714D01*
X69741144Y-43742429D01*
X69704858Y-43669857D01*
X69704858Y-43379571D01*
X69741144Y-43307000D01*
X69813715Y-43270714D01*
X69958858Y-43270714D01*
X70031429Y-43307000D01*
X70067715Y-43379571D01*
X70067715Y-43452143D01*
X69704858Y-43524714D01*
X70720858Y-43742429D02*
X70648287Y-43778714D01*
X70503144Y-43778714D01*
X70430572Y-43742429D01*
X70394287Y-43706143D01*
X70358001Y-43633571D01*
X70358001Y-43415857D01*
X70394287Y-43343286D01*
X70430572Y-43307000D01*
X70503144Y-43270714D01*
X70648287Y-43270714D01*
X70720858Y-43307000D01*
X71337715Y-43742429D02*
X71265144Y-43778714D01*
X71120001Y-43778714D01*
X71047430Y-43742429D01*
X71011144Y-43669857D01*
X71011144Y-43379571D01*
X71047430Y-43307000D01*
X71120001Y-43270714D01*
X71265144Y-43270714D01*
X71337715Y-43307000D01*
X71374001Y-43379571D01*
X71374001Y-43452143D01*
X71011144Y-43524714D01*
X72172286Y-43270714D02*
X72462572Y-43270714D01*
X72281144Y-43778714D02*
X72281144Y-43125571D01*
X72317429Y-43053000D01*
X72390001Y-43016714D01*
X72462572Y-43016714D01*
X72825430Y-43778714D02*
X72752858Y-43742429D01*
X72716573Y-43706143D01*
X72680287Y-43633571D01*
X72680287Y-43415857D01*
X72716573Y-43343286D01*
X72752858Y-43307000D01*
X72825430Y-43270714D01*
X72934287Y-43270714D01*
X73006858Y-43307000D01*
X73043144Y-43343286D01*
X73079430Y-43415857D01*
X73079430Y-43633571D01*
X73043144Y-43706143D01*
X73006858Y-43742429D01*
X72934287Y-43778714D01*
X72825430Y-43778714D01*
X73406002Y-43778714D02*
X73406002Y-43270714D01*
X73406002Y-43415857D02*
X73442287Y-43343286D01*
X73478573Y-43307000D01*
X73551144Y-43270714D01*
X73623716Y-43270714D01*
X74349429Y-43270714D02*
X74639715Y-43270714D01*
X74458287Y-43016714D02*
X74458287Y-43669857D01*
X74494572Y-43742429D01*
X74567144Y-43778714D01*
X74639715Y-43778714D01*
X74893716Y-43778714D02*
X74893716Y-43016714D01*
X75220287Y-43778714D02*
X75220287Y-43379571D01*
X75184001Y-43307000D01*
X75111430Y-43270714D01*
X75002573Y-43270714D01*
X74930001Y-43307000D01*
X74893716Y-43343286D01*
X75873430Y-43742429D02*
X75800859Y-43778714D01*
X75655716Y-43778714D01*
X75583145Y-43742429D01*
X75546859Y-43669857D01*
X75546859Y-43379571D01*
X75583145Y-43307000D01*
X75655716Y-43270714D01*
X75800859Y-43270714D01*
X75873430Y-43307000D01*
X75909716Y-43379571D01*
X75909716Y-43452143D01*
X75546859Y-43524714D01*
X77143430Y-43016714D02*
X76998287Y-43016714D01*
X76925716Y-43053000D01*
X76889430Y-43089286D01*
X76816859Y-43198143D01*
X76780573Y-43343286D01*
X76780573Y-43633571D01*
X76816859Y-43706143D01*
X76853144Y-43742429D01*
X76925716Y-43778714D01*
X77070859Y-43778714D01*
X77143430Y-43742429D01*
X77179716Y-43706143D01*
X77216001Y-43633571D01*
X77216001Y-43452143D01*
X77179716Y-43379571D01*
X77143430Y-43343286D01*
X77070859Y-43307000D01*
X76925716Y-43307000D01*
X76853144Y-43343286D01*
X76816859Y-43379571D01*
X76780573Y-43452143D01*
X78123144Y-43270714D02*
X78123144Y-44032714D01*
X78123144Y-43307000D02*
X78195715Y-43270714D01*
X78340858Y-43270714D01*
X78413429Y-43307000D01*
X78449715Y-43343286D01*
X78486001Y-43415857D01*
X78486001Y-43633571D01*
X78449715Y-43706143D01*
X78413429Y-43742429D01*
X78340858Y-43778714D01*
X78195715Y-43778714D01*
X78123144Y-43742429D01*
X78812573Y-43778714D02*
X78812573Y-43270714D01*
X78812573Y-43016714D02*
X78776287Y-43053000D01*
X78812573Y-43089286D01*
X78848858Y-43053000D01*
X78812573Y-43016714D01*
X78812573Y-43089286D01*
X79175430Y-43270714D02*
X79175430Y-43778714D01*
X79175430Y-43343286D02*
X79211715Y-43307000D01*
X79284287Y-43270714D01*
X79393144Y-43270714D01*
X79465715Y-43307000D01*
X79502001Y-43379571D01*
X79502001Y-43778714D01*
X80772001Y-43778714D02*
X80772001Y-43379571D01*
X80735715Y-43307000D01*
X80663144Y-43270714D01*
X80518001Y-43270714D01*
X80445430Y-43307000D01*
X80772001Y-43742429D02*
X80699430Y-43778714D01*
X80518001Y-43778714D01*
X80445430Y-43742429D01*
X80409144Y-43669857D01*
X80409144Y-43597286D01*
X80445430Y-43524714D01*
X80518001Y-43488429D01*
X80699430Y-43488429D01*
X80772001Y-43452143D01*
X81134859Y-43270714D02*
X81134859Y-43778714D01*
X81134859Y-43343286D02*
X81171144Y-43307000D01*
X81243716Y-43270714D01*
X81352573Y-43270714D01*
X81425144Y-43307000D01*
X81461430Y-43379571D01*
X81461430Y-43778714D01*
X82150859Y-43778714D02*
X82150859Y-43016714D01*
X82150859Y-43742429D02*
X82078288Y-43778714D01*
X81933145Y-43778714D01*
X81860573Y-43742429D01*
X81824288Y-43706143D01*
X81788002Y-43633571D01*
X81788002Y-43415857D01*
X81824288Y-43343286D01*
X81860573Y-43307000D01*
X81933145Y-43270714D01*
X82078288Y-43270714D01*
X82150859Y-43307000D01*
X83493430Y-43778714D02*
X83058002Y-43778714D01*
X83275716Y-43778714D02*
X83275716Y-43016714D01*
X83203145Y-43125571D01*
X83130573Y-43198143D01*
X83058002Y-43234429D01*
X83965144Y-43016714D02*
X84037716Y-43016714D01*
X84110287Y-43053000D01*
X84146573Y-43089286D01*
X84182859Y-43161857D01*
X84219144Y-43307000D01*
X84219144Y-43488429D01*
X84182859Y-43633571D01*
X84146573Y-43706143D01*
X84110287Y-43742429D01*
X84037716Y-43778714D01*
X83965144Y-43778714D01*
X83892573Y-43742429D01*
X83856287Y-43706143D01*
X83820002Y-43633571D01*
X83783716Y-43488429D01*
X83783716Y-43307000D01*
X83820002Y-43161857D01*
X83856287Y-43089286D01*
X83892573Y-43053000D01*
X83965144Y-43016714D01*
X85126287Y-43270714D02*
X85126287Y-44032714D01*
X85126287Y-43307000D02*
X85198858Y-43270714D01*
X85344001Y-43270714D01*
X85416572Y-43307000D01*
X85452858Y-43343286D01*
X85489144Y-43415857D01*
X85489144Y-43633571D01*
X85452858Y-43706143D01*
X85416572Y-43742429D01*
X85344001Y-43778714D01*
X85198858Y-43778714D01*
X85126287Y-43742429D01*
X85815716Y-43778714D02*
X85815716Y-43270714D01*
X85815716Y-43016714D02*
X85779430Y-43053000D01*
X85815716Y-43089286D01*
X85852001Y-43053000D01*
X85815716Y-43016714D01*
X85815716Y-43089286D01*
X86178573Y-43270714D02*
X86178573Y-43778714D01*
X86178573Y-43343286D02*
X86214858Y-43307000D01*
X86287430Y-43270714D01*
X86396287Y-43270714D01*
X86468858Y-43307000D01*
X86505144Y-43379571D01*
X86505144Y-43778714D01*
X65894857Y-44540714D02*
X66076286Y-45048714D01*
X66257714Y-44540714D01*
X66838285Y-45012429D02*
X66765714Y-45048714D01*
X66620571Y-45048714D01*
X66548000Y-45012429D01*
X66511714Y-44939857D01*
X66511714Y-44649571D01*
X66548000Y-44577000D01*
X66620571Y-44540714D01*
X66765714Y-44540714D01*
X66838285Y-44577000D01*
X66874571Y-44649571D01*
X66874571Y-44722143D01*
X66511714Y-44794714D01*
X67201143Y-45048714D02*
X67201143Y-44540714D01*
X67201143Y-44685857D02*
X67237428Y-44613286D01*
X67273714Y-44577000D01*
X67346285Y-44540714D01*
X67418857Y-44540714D01*
X67636571Y-45012429D02*
X67709142Y-45048714D01*
X67854285Y-45048714D01*
X67926857Y-45012429D01*
X67963142Y-44939857D01*
X67963142Y-44903571D01*
X67926857Y-44831000D01*
X67854285Y-44794714D01*
X67745428Y-44794714D01*
X67672857Y-44758429D01*
X67636571Y-44685857D01*
X67636571Y-44649571D01*
X67672857Y-44577000D01*
X67745428Y-44540714D01*
X67854285Y-44540714D01*
X67926857Y-44577000D01*
X68289714Y-45048714D02*
X68289714Y-44540714D01*
X68289714Y-44286714D02*
X68253428Y-44323000D01*
X68289714Y-44359286D01*
X68325999Y-44323000D01*
X68289714Y-44286714D01*
X68289714Y-44359286D01*
X68761428Y-45048714D02*
X68688856Y-45012429D01*
X68652571Y-44976143D01*
X68616285Y-44903571D01*
X68616285Y-44685857D01*
X68652571Y-44613286D01*
X68688856Y-44577000D01*
X68761428Y-44540714D01*
X68870285Y-44540714D01*
X68942856Y-44577000D01*
X68979142Y-44613286D01*
X69015428Y-44685857D01*
X69015428Y-44903571D01*
X68979142Y-44976143D01*
X68942856Y-45012429D01*
X68870285Y-45048714D01*
X68761428Y-45048714D01*
X69342000Y-44540714D02*
X69342000Y-45048714D01*
X69342000Y-44613286D02*
X69378285Y-44577000D01*
X69450857Y-44540714D01*
X69559714Y-44540714D01*
X69632285Y-44577000D01*
X69668571Y-44649571D01*
X69668571Y-45048714D01*
X69995143Y-45012429D02*
X70067714Y-45048714D01*
X70212857Y-45048714D01*
X70285429Y-45012429D01*
X70321714Y-44939857D01*
X70321714Y-44903571D01*
X70285429Y-44831000D01*
X70212857Y-44794714D01*
X70104000Y-44794714D01*
X70031429Y-44758429D01*
X69995143Y-44685857D01*
X69995143Y-44649571D01*
X70031429Y-44577000D01*
X70104000Y-44540714D01*
X70212857Y-44540714D01*
X70285429Y-44577000D01*
X70648286Y-44976143D02*
X70684571Y-45012429D01*
X70648286Y-45048714D01*
X70612000Y-45012429D01*
X70648286Y-44976143D01*
X70648286Y-45048714D01*
D12*
X64500000Y-39696000D02*
X64500000Y-40946000D01*
X64000000Y-39696000D02*
X64500000Y-39696000D01*
X65250000Y-38446000D02*
X63500000Y-38446000D01*
X65250000Y-50446000D02*
X65250000Y-38446000D01*
X63500000Y-50446000D02*
X65250000Y-50446000D01*
X83450000Y-49800000D02*
X81950000Y-49800000D01*
X83450000Y-50300000D02*
X83450000Y-49800000D01*
X83450000Y-39100000D02*
X81950000Y-39100000D01*
X83450000Y-38600000D02*
X83450000Y-39100000D01*
X84450000Y-39850000D02*
X84450000Y-38100000D01*
X67450000Y-39850000D02*
X84450000Y-39850000D01*
X67450000Y-38100000D02*
X67450000Y-39850000D01*
X87900000Y-39696000D02*
X87900000Y-40946000D01*
X88400000Y-39696000D02*
X87900000Y-39696000D01*
D10*
G36*
X79504378Y-45992418D02*
X79502238Y-46586076D01*
X79502000Y-46770945D01*
X79500032Y-47411217D01*
X79493365Y-47901453D01*
X79480856Y-48260914D01*
X79461361Y-48508861D01*
X79433735Y-48664554D01*
X79396835Y-48747252D01*
X79383831Y-48760670D01*
X79216596Y-48832142D01*
X79078667Y-48862474D01*
X79078667Y-48408748D01*
X79078667Y-46815371D01*
X79074611Y-46294909D01*
X79063250Y-45845332D01*
X79045795Y-45491665D01*
X79023453Y-45258937D01*
X78999275Y-45172926D01*
X78887827Y-45142092D01*
X78645552Y-45095619D01*
X78309493Y-45040095D01*
X77962108Y-44988485D01*
X77333640Y-44926536D01*
X76606051Y-44898245D01*
X75836137Y-44902497D01*
X75080692Y-44938179D01*
X74396514Y-45004176D01*
X73998667Y-45066237D01*
X73448333Y-45170859D01*
X73425366Y-46792143D01*
X73402399Y-48413426D01*
X73975699Y-48504198D01*
X74311613Y-48556928D01*
X74616424Y-48604002D01*
X74803000Y-48632091D01*
X75043169Y-48649739D01*
X75414525Y-48656161D01*
X75879383Y-48652617D01*
X76400057Y-48640364D01*
X76938862Y-48620660D01*
X77458112Y-48594761D01*
X77920122Y-48563926D01*
X78287206Y-48529412D01*
X78422500Y-48511306D01*
X79078667Y-48408748D01*
X79078667Y-48862474D01*
X78907275Y-48900166D01*
X78483113Y-48962037D01*
X77971356Y-49015051D01*
X77399249Y-49056504D01*
X76794039Y-49083692D01*
X76182969Y-49093910D01*
X76030667Y-49093483D01*
X75545669Y-49088260D01*
X75106889Y-49080201D01*
X74748154Y-49070183D01*
X74503292Y-49059080D01*
X74422000Y-49051816D01*
X73915428Y-48968236D01*
X73507639Y-48885708D01*
X73222462Y-48809632D01*
X73088500Y-48749674D01*
X73051465Y-48671849D01*
X73023306Y-48496790D01*
X73003198Y-48209075D01*
X72990317Y-47793284D01*
X72983837Y-47233996D01*
X72982667Y-46770945D01*
X72983618Y-46154599D01*
X72987577Y-45686164D01*
X72996200Y-45344224D01*
X73011144Y-45107362D01*
X73034066Y-44954160D01*
X73066622Y-44863203D01*
X73110468Y-44813073D01*
X73135312Y-44797597D01*
X73401200Y-44704179D01*
X73806761Y-44624175D01*
X74322773Y-44558830D01*
X74920015Y-44509389D01*
X75569264Y-44477099D01*
X76241298Y-44463204D01*
X76906896Y-44468950D01*
X77536834Y-44495582D01*
X78101891Y-44544346D01*
X78340193Y-44575783D01*
X78705658Y-44627423D01*
X78985762Y-44672352D01*
X79191766Y-44731847D01*
X79334929Y-44827182D01*
X79426512Y-44979632D01*
X79477775Y-45210471D01*
X79499977Y-45540975D01*
X79504378Y-45992418D01*
X79504378Y-45992418D01*
X79504378Y-45992418D01*
G37*
X79504378Y-45992418D02*
X79502238Y-46586076D01*
X79502000Y-46770945D01*
X79500032Y-47411217D01*
X79493365Y-47901453D01*
X79480856Y-48260914D01*
X79461361Y-48508861D01*
X79433735Y-48664554D01*
X79396835Y-48747252D01*
X79383831Y-48760670D01*
X79216596Y-48832142D01*
X79078667Y-48862474D01*
X79078667Y-48408748D01*
X79078667Y-46815371D01*
X79074611Y-46294909D01*
X79063250Y-45845332D01*
X79045795Y-45491665D01*
X79023453Y-45258937D01*
X78999275Y-45172926D01*
X78887827Y-45142092D01*
X78645552Y-45095619D01*
X78309493Y-45040095D01*
X77962108Y-44988485D01*
X77333640Y-44926536D01*
X76606051Y-44898245D01*
X75836137Y-44902497D01*
X75080692Y-44938179D01*
X74396514Y-45004176D01*
X73998667Y-45066237D01*
X73448333Y-45170859D01*
X73425366Y-46792143D01*
X73402399Y-48413426D01*
X73975699Y-48504198D01*
X74311613Y-48556928D01*
X74616424Y-48604002D01*
X74803000Y-48632091D01*
X75043169Y-48649739D01*
X75414525Y-48656161D01*
X75879383Y-48652617D01*
X76400057Y-48640364D01*
X76938862Y-48620660D01*
X77458112Y-48594761D01*
X77920122Y-48563926D01*
X78287206Y-48529412D01*
X78422500Y-48511306D01*
X79078667Y-48408748D01*
X79078667Y-48862474D01*
X78907275Y-48900166D01*
X78483113Y-48962037D01*
X77971356Y-49015051D01*
X77399249Y-49056504D01*
X76794039Y-49083692D01*
X76182969Y-49093910D01*
X76030667Y-49093483D01*
X75545669Y-49088260D01*
X75106889Y-49080201D01*
X74748154Y-49070183D01*
X74503292Y-49059080D01*
X74422000Y-49051816D01*
X73915428Y-48968236D01*
X73507639Y-48885708D01*
X73222462Y-48809632D01*
X73088500Y-48749674D01*
X73051465Y-48671849D01*
X73023306Y-48496790D01*
X73003198Y-48209075D01*
X72990317Y-47793284D01*
X72983837Y-47233996D01*
X72982667Y-46770945D01*
X72983618Y-46154599D01*
X72987577Y-45686164D01*
X72996200Y-45344224D01*
X73011144Y-45107362D01*
X73034066Y-44954160D01*
X73066622Y-44863203D01*
X73110468Y-44813073D01*
X73135312Y-44797597D01*
X73401200Y-44704179D01*
X73806761Y-44624175D01*
X74322773Y-44558830D01*
X74920015Y-44509389D01*
X75569264Y-44477099D01*
X76241298Y-44463204D01*
X76906896Y-44468950D01*
X77536834Y-44495582D01*
X78101891Y-44544346D01*
X78340193Y-44575783D01*
X78705658Y-44627423D01*
X78985762Y-44672352D01*
X79191766Y-44731847D01*
X79334929Y-44827182D01*
X79426512Y-44979632D01*
X79477775Y-45210471D01*
X79499977Y-45540975D01*
X79504378Y-45992418D01*
X79504378Y-45992418D01*
G36*
X76542670Y-47137396D02*
X76495189Y-47520950D01*
X76330447Y-47870481D01*
X76056161Y-48139811D01*
X75914903Y-48213168D01*
X75726567Y-48263105D01*
X75455715Y-48294878D01*
X75066911Y-48313742D01*
X74845333Y-48319393D01*
X74448939Y-48323691D01*
X74110647Y-48319729D01*
X73868870Y-48308450D01*
X73765833Y-48292953D01*
X73676971Y-48175885D01*
X73668884Y-47997760D01*
X73736694Y-47843596D01*
X73793925Y-47803391D01*
X73932727Y-47781378D01*
X74196799Y-47764077D01*
X74542093Y-47753813D01*
X74767591Y-47752000D01*
X75249135Y-47736429D01*
X75585671Y-47682481D01*
X75799272Y-47579299D01*
X75912013Y-47416028D01*
X75945967Y-47181811D01*
X75946000Y-47172455D01*
X75879502Y-46908492D01*
X75674858Y-46721644D01*
X75324342Y-46606320D01*
X75122924Y-46576904D01*
X74847361Y-46541063D01*
X74700693Y-46495056D01*
X74642873Y-46417255D01*
X74633667Y-46312666D01*
X74644631Y-46198268D01*
X74702964Y-46131955D01*
X74846824Y-46097166D01*
X75114369Y-46077341D01*
X75184000Y-46073817D01*
X75600280Y-46077844D01*
X75899980Y-46142245D01*
X75994279Y-46184786D01*
X76290942Y-46429094D01*
X76474163Y-46760037D01*
X76542670Y-47137396D01*
X76542670Y-47137396D01*
X76542670Y-47137396D01*
G37*
X76542670Y-47137396D02*
X76495189Y-47520950D01*
X76330447Y-47870481D01*
X76056161Y-48139811D01*
X75914903Y-48213168D01*
X75726567Y-48263105D01*
X75455715Y-48294878D01*
X75066911Y-48313742D01*
X74845333Y-48319393D01*
X74448939Y-48323691D01*
X74110647Y-48319729D01*
X73868870Y-48308450D01*
X73765833Y-48292953D01*
X73676971Y-48175885D01*
X73668884Y-47997760D01*
X73736694Y-47843596D01*
X73793925Y-47803391D01*
X73932727Y-47781378D01*
X74196799Y-47764077D01*
X74542093Y-47753813D01*
X74767591Y-47752000D01*
X75249135Y-47736429D01*
X75585671Y-47682481D01*
X75799272Y-47579299D01*
X75912013Y-47416028D01*
X75945967Y-47181811D01*
X75946000Y-47172455D01*
X75879502Y-46908492D01*
X75674858Y-46721644D01*
X75324342Y-46606320D01*
X75122924Y-46576904D01*
X74847361Y-46541063D01*
X74700693Y-46495056D01*
X74642873Y-46417255D01*
X74633667Y-46312666D01*
X74644631Y-46198268D01*
X74702964Y-46131955D01*
X74846824Y-46097166D01*
X75114369Y-46077341D01*
X75184000Y-46073817D01*
X75600280Y-46077844D01*
X75899980Y-46142245D01*
X75994279Y-46184786D01*
X76290942Y-46429094D01*
X76474163Y-46760037D01*
X76542670Y-47137396D01*
X76542670Y-47137396D01*
G36*
X78739068Y-47228399D02*
X78719138Y-47751157D01*
X78658339Y-48114069D01*
X78557294Y-48315846D01*
X78416624Y-48355203D01*
X78248933Y-48243066D01*
X78195682Y-48097488D01*
X78161686Y-47790882D01*
X78147676Y-47330537D01*
X78147333Y-47231050D01*
X78138764Y-46833735D01*
X78115630Y-46481407D01*
X78081790Y-46219877D01*
X78053241Y-46114124D01*
X77909675Y-45944654D01*
X77675328Y-45797565D01*
X77629908Y-45778284D01*
X77408838Y-45667786D01*
X77314007Y-45541972D01*
X77300667Y-45436685D01*
X77364639Y-45260243D01*
X77532569Y-45176667D01*
X77768475Y-45183481D01*
X78036374Y-45278205D01*
X78300284Y-45458361D01*
X78354278Y-45509255D01*
X78505560Y-45685985D01*
X78612216Y-45885797D01*
X78681517Y-46141186D01*
X78720737Y-46484649D01*
X78737149Y-46948682D01*
X78739068Y-47228399D01*
X78739068Y-47228399D01*
X78739068Y-47228399D01*
G37*
X78739068Y-47228399D02*
X78719138Y-47751157D01*
X78658339Y-48114069D01*
X78557294Y-48315846D01*
X78416624Y-48355203D01*
X78248933Y-48243066D01*
X78195682Y-48097488D01*
X78161686Y-47790882D01*
X78147676Y-47330537D01*
X78147333Y-47231050D01*
X78138764Y-46833735D01*
X78115630Y-46481407D01*
X78081790Y-46219877D01*
X78053241Y-46114124D01*
X77909675Y-45944654D01*
X77675328Y-45797565D01*
X77629908Y-45778284D01*
X77408838Y-45667786D01*
X77314007Y-45541972D01*
X77300667Y-45436685D01*
X77364639Y-45260243D01*
X77532569Y-45176667D01*
X77768475Y-45183481D01*
X78036374Y-45278205D01*
X78300284Y-45458361D01*
X78354278Y-45509255D01*
X78505560Y-45685985D01*
X78612216Y-45885797D01*
X78681517Y-46141186D01*
X78720737Y-46484649D01*
X78737149Y-46948682D01*
X78739068Y-47228399D01*
X78739068Y-47228399D01*
G36*
X77395199Y-46862520D02*
X77371174Y-47159519D01*
X77319217Y-47369327D01*
X77258333Y-47443951D01*
X77066305Y-47474023D01*
X76945857Y-47377621D01*
X76887111Y-47140874D01*
X76877333Y-46908909D01*
X76842254Y-46413412D01*
X76734985Y-46063937D01*
X76552479Y-45851931D01*
X76488135Y-45816336D01*
X76310694Y-45773401D01*
X76015586Y-45740319D01*
X75654408Y-45722058D01*
X75487767Y-45720000D01*
X75096142Y-45725548D01*
X74831346Y-45747080D01*
X74651098Y-45791927D01*
X74513114Y-45867422D01*
X74475751Y-45895478D01*
X74296754Y-46124739D01*
X74259202Y-46387950D01*
X74366386Y-46634950D01*
X74423312Y-46694854D01*
X74646206Y-46809454D01*
X74995642Y-46880508D01*
X75079479Y-46888644D01*
X75443848Y-46945077D01*
X75644648Y-47042606D01*
X75682808Y-47182155D01*
X75559257Y-47364647D01*
X75558952Y-47364952D01*
X75361853Y-47462949D01*
X75039223Y-47480715D01*
X74579121Y-47418860D01*
X74562751Y-47415719D01*
X74183002Y-47269080D01*
X73904556Y-47017501D01*
X73731496Y-46694686D01*
X73667901Y-46334335D01*
X73717854Y-45970151D01*
X73885435Y-45635837D01*
X74174726Y-45365094D01*
X74305528Y-45291569D01*
X74488860Y-45212187D01*
X74672289Y-45161824D01*
X74897337Y-45135875D01*
X75205528Y-45129734D01*
X75638384Y-45138796D01*
X75673491Y-45139852D01*
X76166486Y-45162266D01*
X76524435Y-45202823D01*
X76781523Y-45273716D01*
X76971932Y-45387137D01*
X77129845Y-45555277D01*
X77227625Y-45694171D01*
X77307505Y-45894154D01*
X77362582Y-46185259D01*
X77392074Y-46522907D01*
X77395199Y-46862520D01*
X77395199Y-46862520D01*
X77395199Y-46862520D01*
G37*
X77395199Y-46862520D02*
X77371174Y-47159519D01*
X77319217Y-47369327D01*
X77258333Y-47443951D01*
X77066305Y-47474023D01*
X76945857Y-47377621D01*
X76887111Y-47140874D01*
X76877333Y-46908909D01*
X76842254Y-46413412D01*
X76734985Y-46063937D01*
X76552479Y-45851931D01*
X76488135Y-45816336D01*
X76310694Y-45773401D01*
X76015586Y-45740319D01*
X75654408Y-45722058D01*
X75487767Y-45720000D01*
X75096142Y-45725548D01*
X74831346Y-45747080D01*
X74651098Y-45791927D01*
X74513114Y-45867422D01*
X74475751Y-45895478D01*
X74296754Y-46124739D01*
X74259202Y-46387950D01*
X74366386Y-46634950D01*
X74423312Y-46694854D01*
X74646206Y-46809454D01*
X74995642Y-46880508D01*
X75079479Y-46888644D01*
X75443848Y-46945077D01*
X75644648Y-47042606D01*
X75682808Y-47182155D01*
X75559257Y-47364647D01*
X75558952Y-47364952D01*
X75361853Y-47462949D01*
X75039223Y-47480715D01*
X74579121Y-47418860D01*
X74562751Y-47415719D01*
X74183002Y-47269080D01*
X73904556Y-47017501D01*
X73731496Y-46694686D01*
X73667901Y-46334335D01*
X73717854Y-45970151D01*
X73885435Y-45635837D01*
X74174726Y-45365094D01*
X74305528Y-45291569D01*
X74488860Y-45212187D01*
X74672289Y-45161824D01*
X74897337Y-45135875D01*
X75205528Y-45129734D01*
X75638384Y-45138796D01*
X75673491Y-45139852D01*
X76166486Y-45162266D01*
X76524435Y-45202823D01*
X76781523Y-45273716D01*
X76971932Y-45387137D01*
X77129845Y-45555277D01*
X77227625Y-45694171D01*
X77307505Y-45894154D01*
X77362582Y-46185259D01*
X77392074Y-46522907D01*
X77395199Y-46862520D01*
X77395199Y-46862520D01*
D11*
X66344714Y-50418999D02*
X65582714Y-50418999D01*
X66308429Y-50092428D02*
X66344714Y-49983571D01*
X66344714Y-49802142D01*
X66308429Y-49729571D01*
X66272143Y-49693285D01*
X66199571Y-49657000D01*
X66127000Y-49657000D01*
X66054429Y-49693285D01*
X66018143Y-49729571D01*
X65981857Y-49802142D01*
X65945571Y-49947285D01*
X65909286Y-50019857D01*
X65873000Y-50056142D01*
X65800429Y-50092428D01*
X65727857Y-50092428D01*
X65655286Y-50056142D01*
X65619000Y-50019857D01*
X65582714Y-49947285D01*
X65582714Y-49765857D01*
X65619000Y-49657000D01*
X66344714Y-49330428D02*
X65582714Y-49330428D01*
X65582714Y-49040143D01*
X65619000Y-48967571D01*
X65655286Y-48931286D01*
X65727857Y-48895000D01*
X65836714Y-48895000D01*
X65909286Y-48931286D01*
X65945571Y-48967571D01*
X65981857Y-49040143D01*
X65981857Y-49330428D01*
X66417286Y-48749857D02*
X66417286Y-48169286D01*
X65582714Y-47661286D02*
X65582714Y-47806429D01*
X65619000Y-47879000D01*
X65655286Y-47915286D01*
X65764143Y-47987857D01*
X65909286Y-48024143D01*
X66199571Y-48024143D01*
X66272143Y-47987857D01*
X66308429Y-47951572D01*
X66344714Y-47879000D01*
X66344714Y-47733857D01*
X66308429Y-47661286D01*
X66272143Y-47625000D01*
X66199571Y-47588715D01*
X66018143Y-47588715D01*
X65945571Y-47625000D01*
X65909286Y-47661286D01*
X65873000Y-47733857D01*
X65873000Y-47879000D01*
X65909286Y-47951572D01*
X65945571Y-47987857D01*
X66018143Y-48024143D01*
X67455144Y-40944714D02*
X67455144Y-40182714D01*
X67781715Y-40908429D02*
X67890572Y-40944714D01*
X68072001Y-40944714D01*
X68144572Y-40908429D01*
X68180858Y-40872143D01*
X68217143Y-40799571D01*
X68217143Y-40727000D01*
X68180858Y-40654429D01*
X68144572Y-40618143D01*
X68072001Y-40581857D01*
X67926858Y-40545571D01*
X67854286Y-40509286D01*
X67818001Y-40473000D01*
X67781715Y-40400429D01*
X67781715Y-40327857D01*
X67818001Y-40255286D01*
X67854286Y-40219000D01*
X67926858Y-40182714D01*
X68108286Y-40182714D01*
X68217143Y-40219000D01*
X68543715Y-40944714D02*
X68543715Y-40182714D01*
X68834000Y-40182714D01*
X68906572Y-40219000D01*
X68942857Y-40255286D01*
X68979143Y-40327857D01*
X68979143Y-40436714D01*
X68942857Y-40509286D01*
X68906572Y-40545571D01*
X68834000Y-40581857D01*
X68543715Y-40581857D01*
X69124286Y-41017286D02*
X69704857Y-41017286D01*
X70285428Y-40944714D02*
X69850000Y-40944714D01*
X70067714Y-40944714D02*
X70067714Y-40182714D01*
X69995143Y-40291571D01*
X69922571Y-40364143D01*
X69850000Y-40400429D01*
X70757142Y-40182714D02*
X70829714Y-40182714D01*
X70902285Y-40219000D01*
X70938571Y-40255286D01*
X70974857Y-40327857D01*
X71011142Y-40473000D01*
X71011142Y-40654429D01*
X70974857Y-40799571D01*
X70938571Y-40872143D01*
X70902285Y-40908429D01*
X70829714Y-40944714D01*
X70757142Y-40944714D01*
X70684571Y-40908429D01*
X70648285Y-40872143D01*
X70612000Y-40799571D01*
X70575714Y-40654429D01*
X70575714Y-40473000D01*
X70612000Y-40327857D01*
X70648285Y-40255286D01*
X70684571Y-40219000D01*
X70757142Y-40182714D01*
M02*
