G04 #@! TF.FileFunction,Copper,L1,Top,Signal*
%FSLAX46Y46*%
G04 Gerber Fmt 4.6, Leading zero omitted, Abs format (unit mm)*
G04 Created by KiCad (PCBNEW 4.0.7) date 2018 March 08, Thursday 11:57:54*
%MOMM*%
%LPD*%
G01*
G04 APERTURE LIST*
%ADD10C,0.100000*%
%ADD11C,1.016000*%
%ADD12R,1.270000X1.016000*%
%ADD13R,1.016000X1.270000*%
%ADD14C,0.250000*%
G04 APERTURE END LIST*
D10*
D11*
X63500000Y-40386000D03*
X63500000Y-41656000D03*
X63500000Y-42926000D03*
X63500000Y-45466000D03*
X63500000Y-46736000D03*
X63500000Y-48006000D03*
D12*
X63500000Y-40386000D03*
X63500000Y-41656000D03*
X63500000Y-42926000D03*
X63500000Y-45466000D03*
X63500000Y-46736000D03*
X63500000Y-48006000D03*
D11*
X82550000Y-50800000D03*
X81280000Y-50800000D03*
X80010000Y-50800000D03*
X78740000Y-50800000D03*
X77470000Y-50800000D03*
X74930000Y-50800000D03*
X73660000Y-50800000D03*
X72390000Y-50800000D03*
X71120000Y-50800000D03*
X69850000Y-50800000D03*
D13*
X69850000Y-50800000D03*
X71120000Y-50800000D03*
X72390000Y-50800000D03*
X73660000Y-50800000D03*
X74930000Y-50800000D03*
X77470000Y-50800000D03*
X78740000Y-50800000D03*
X80010000Y-50800000D03*
X81280000Y-50800000D03*
X82550000Y-50800000D03*
D11*
X82550000Y-38100000D03*
X81280000Y-38100000D03*
X80010000Y-38100000D03*
X78740000Y-38100000D03*
X77470000Y-38100000D03*
X74930000Y-38100000D03*
X73660000Y-38100000D03*
X72390000Y-38100000D03*
X71120000Y-38100000D03*
X69850000Y-38100000D03*
D13*
X82550000Y-38100000D03*
X81280000Y-38100000D03*
X80010000Y-38100000D03*
X78740000Y-38100000D03*
X77470000Y-38100000D03*
X74930000Y-38100000D03*
X73660000Y-38100000D03*
X72390000Y-38100000D03*
X71120000Y-38100000D03*
X69850000Y-38100000D03*
D11*
X88900000Y-40386000D03*
X88900000Y-41656000D03*
X88900000Y-42926000D03*
X88900000Y-45466000D03*
X88900000Y-46736000D03*
X88900000Y-48006000D03*
D12*
X88900000Y-48006000D03*
X88900000Y-46736000D03*
X88900000Y-45466000D03*
X88900000Y-42926000D03*
X88900000Y-41656000D03*
X88900000Y-40386000D03*
D14*
X73533000Y-40386000D02*
X82550000Y-49403000D01*
X82550000Y-49403000D02*
X82550000Y-50800000D01*
X63500000Y-40386000D02*
X73533000Y-40386000D01*
X73152000Y-41656000D02*
X81280000Y-49784000D01*
X81280000Y-49784000D02*
X81280000Y-50800000D01*
X63500000Y-41656000D02*
X73152000Y-41656000D01*
X63500000Y-42926000D02*
X73914000Y-42926000D01*
X80010000Y-49022000D02*
X80010000Y-50800000D01*
X73914000Y-42926000D02*
X80010000Y-49022000D01*
X74676000Y-45466000D02*
X78740000Y-49530000D01*
X78740000Y-49530000D02*
X78740000Y-50800000D01*
X63500000Y-45466000D02*
X74676000Y-45466000D01*
X63500000Y-46736000D02*
X74422000Y-46736000D01*
X74422000Y-46736000D02*
X77470000Y-49784000D01*
X77470000Y-49784000D02*
X77470000Y-50800000D01*
X63500000Y-48006000D02*
X72136000Y-48006000D01*
X72136000Y-48006000D02*
X74930000Y-50800000D01*
X82550000Y-48006000D02*
X74930000Y-40386000D01*
X74930000Y-40386000D02*
X74930000Y-38100000D01*
X88900000Y-48006000D02*
X82550000Y-48006000D01*
X88900000Y-46736000D02*
X86106000Y-46736000D01*
X86106000Y-46736000D02*
X77470000Y-38100000D01*
X88900000Y-45466000D02*
X86106000Y-45466000D01*
X86106000Y-45466000D02*
X78740000Y-38100000D01*
X88900000Y-42926000D02*
X84836000Y-42926000D01*
X84836000Y-42926000D02*
X80010000Y-38100000D01*
X88900000Y-41656000D02*
X84836000Y-41656000D01*
X84836000Y-41656000D02*
X81280000Y-38100000D01*
X88900000Y-40386000D02*
X84836000Y-40386000D01*
X84836000Y-40386000D02*
X82550000Y-38100000D01*
X88900000Y-48514000D02*
X88181580Y-48514000D01*
M02*
