G04 #@! TF.FileFunction,Copper,L2,Bot,Signal*
%FSLAX46Y46*%
G04 Gerber Fmt 4.6, Leading zero omitted, Abs format (unit mm)*
G04 Created by KiCad (PCBNEW 4.0.7) date 2018 March 08, Thursday 11:57:54*
%MOMM*%
%LPD*%
G01*
G04 APERTURE LIST*
%ADD10C,0.100000*%
%ADD11C,1.016000*%
%ADD12R,1.270000X1.016000*%
%ADD13R,1.016000X1.270000*%
G04 APERTURE END LIST*
D10*
D11*
X63500000Y-40386000D03*
X63500000Y-41656000D03*
X63500000Y-42926000D03*
X63500000Y-45466000D03*
X63500000Y-46736000D03*
X63500000Y-48006000D03*
D12*
X63500000Y-48006000D03*
X63500000Y-46736000D03*
X63500000Y-45466000D03*
X63500000Y-42926000D03*
X63500000Y-41656000D03*
X63500000Y-40386000D03*
D11*
X82550000Y-50800000D03*
X81280000Y-50800000D03*
X80010000Y-50800000D03*
X78740000Y-50800000D03*
X77470000Y-50800000D03*
X74930000Y-50800000D03*
X73660000Y-50800000D03*
X72390000Y-50800000D03*
X71120000Y-50800000D03*
X69850000Y-50800000D03*
D13*
X82550000Y-50800000D03*
X81280000Y-50800000D03*
X80010000Y-50800000D03*
X78740000Y-50800000D03*
X77470000Y-50800000D03*
X74930000Y-50800000D03*
X73660000Y-50800000D03*
X72390000Y-50800000D03*
X71120000Y-50800000D03*
X69850000Y-50800000D03*
D11*
X82550000Y-38100000D03*
X81280000Y-38100000D03*
X80010000Y-38100000D03*
X78740000Y-38100000D03*
X77470000Y-38100000D03*
X74930000Y-38100000D03*
X73660000Y-38100000D03*
X72390000Y-38100000D03*
X71120000Y-38100000D03*
X69850000Y-38100000D03*
D13*
X69850000Y-38100000D03*
X71120000Y-38100000D03*
X72390000Y-38100000D03*
X73660000Y-38100000D03*
X74930000Y-38100000D03*
X77470000Y-38100000D03*
X78740000Y-38100000D03*
X80010000Y-38100000D03*
X81280000Y-38100000D03*
X82550000Y-38100000D03*
D11*
X88900000Y-40386000D03*
X88900000Y-41656000D03*
X88900000Y-42926000D03*
X88900000Y-45466000D03*
X88900000Y-46736000D03*
X88900000Y-48006000D03*
D12*
X88900000Y-40386000D03*
X88900000Y-41656000D03*
X88900000Y-42926000D03*
X88900000Y-45466000D03*
X88900000Y-46736000D03*
X88900000Y-48006000D03*
M02*
