M48
;DRILL file {KiCad 4.0.7} date 2018 March 08, Thursday 11:57:57
;FORMAT={2:4/ absolute / inch / suppress leading zeros}
FMAT,2
INCH,TZ
T1C0.032
T2C0.025
T3C0.042
%
G90
G05
M72
T1
X25000Y-15900
X25000Y-16400
X25000Y-16900
X25000Y-17900
X25000Y-18400
X25000Y-18900
X27500Y-15000
X27500Y-20000
X28000Y-15000
X28000Y-20000
X28500Y-15000
X28500Y-20000
X29000Y-15000
X29000Y-20000
X29500Y-15000
X29500Y-20000
X30500Y-15000
X30500Y-20000
X31000Y-15000
X31000Y-20000
X31500Y-15000
X31500Y-20000
X32000Y-15000
X32000Y-20000
X32500Y-15000
X32500Y-20000
X35000Y-15900
X35000Y-16400
X35000Y-16900
X35000Y-17900
X35000Y-18400
X35000Y-18900
T2
X25000Y-15400
X25000Y-19580
X26820Y-15000
X26820Y-20000
X33000Y-15000
X33000Y-20000
X35000Y-15400
X35000Y-19580
T3
X25390Y-17400
X30000Y-15390
X30000Y-19610
X34610Y-17400
T0
M30
